<svg xmlns="http://www.w3.org/2000/svg" width="80" height="72" viewBox="0 0 80 72" role="img" aria-label="Palmarch: original pixel field portrait inspired by Moose" shape-rendering="crispEdges"><title>Palmarch: original pixel field portrait inspired by Moose</title><rect x="70" y="2" width="1" height="1" fill="#202a24"/><rect x="33" y="3" width="1" height="1" fill="#202a24"/><rect x="42" y="3" width="1" height="1" fill="#202a24"/><rect x="70" y="3" width="2" height="1" fill="#202a24"/><rect x="27" y="4" width="1" height="1" fill="#202a24"/><rect x="33" y="4" width="2" height="1" fill="#202a24"/><rect x="42" y="4" width="1" height="1" fill="#202a24"/><rect x="70" y="4" width="2" height="1" fill="#202a24"/><rect x="27" y="5" width="2" height="1" fill="#202a24"/><rect x="33" y="5" width="2" height="1" fill="#202a24"/><rect x="41" y="5" width="2" height="1" fill="#202a24"/><rect x="63" y="5" width="1" height="1" fill="#202a24"/><rect x="70" y="5" width="1" height="1" fill="#202a24"/><rect x="71" y="5" width="1" height="1" fill="#93a078"/><rect x="72" y="5" width="1" height="1" fill="#202a24"/><rect x="76" y="5" width="1" height="1" fill="#202a24"/><rect x="27" y="6" width="2" height="1" fill="#202a24"/><rect x="33" y="6" width="1" height="1" fill="#202a24"/><rect x="34" y="6" width="1" height="1" fill="#93a078"/><rect x="35" y="6" width="1" height="1" fill="#202a24"/><rect x="41" y="6" width="2" height="1" fill="#202a24"/><rect x="63" y="6" width="2" height="1" fill="#202a24"/><rect x="70" y="6" width="1" height="1" fill="#202a24"/><rect x="71" y="6" width="1" height="1" fill="#93a078"/><rect x="72" y="6" width="1" height="1" fill="#202a24"/><rect x="74" y="6" width="3" height="1" fill="#202a24"/><rect x="27" y="7" width="1" height="1" fill="#202a24"/><rect x="28" y="7" width="1" height="1" fill="#93a078"/><rect x="29" y="7" width="1" height="1" fill="#202a24"/><rect x="33" y="7" width="1" height="1" fill="#202a24"/><rect x="34" y="7" width="1" height="1" fill="#93a078"/><rect x="35" y="7" width="1" height="1" fill="#202a24"/><rect x="41" y="7" width="1" height="1" fill="#202a24"/><rect x="42" y="7" width="1" height="1" fill="#93a078"/><rect x="43" y="7" width="1" height="1" fill="#202a24"/><rect x="63" y="7" width="2" height="1" fill="#202a24"/><rect x="70" y="7" width="1" height="1" fill="#202a24"/><rect x="71" y="7" width="2" height="1" fill="#93a078"/><rect x="73" y="7" width="1" height="1" fill="#202a24"/><rect x="74" y="7" width="2" height="1" fill="#93a078"/><rect x="76" y="7" width="1" height="1" fill="#202a24"/><rect x="28" y="8" width="2" height="1" fill="#202a24"/><rect x="33" y="8" width="1" height="1" fill="#202a24"/><rect x="34" y="8" width="1" height="1" fill="#93a078"/><rect x="35" y="8" width="1" height="1" fill="#52634a"/><rect x="36" y="8" width="2" height="1" fill="#202a24"/><rect x="40" y="8" width="1" height="1" fill="#202a24"/><rect x="41" y="8" width="2" height="1" fill="#93a078"/><rect x="43" y="8" width="1" height="1" fill="#202a24"/><rect x="63" y="8" width="1" height="1" fill="#202a24"/><rect x="64" y="8" width="1" height="1" fill="#52634a"/><rect x="65" y="8" width="1" height="1" fill="#202a24"/><rect x="69" y="8" width="2" height="1" fill="#202a24"/><rect x="71" y="8" width="2" height="1" fill="#93a078"/><rect x="73" y="8" width="1" height="1" fill="#52634a"/><rect x="74" y="8" width="2" height="1" fill="#93a078"/><rect x="76" y="8" width="1" height="1" fill="#202a24"/><rect x="28" y="9" width="1" height="1" fill="#202a24"/><rect x="29" y="9" width="1" height="1" fill="#93a078"/><rect x="30" y="9" width="2" height="1" fill="#202a24"/><rect x="33" y="9" width="1" height="1" fill="#202a24"/><rect x="34" y="9" width="4" height="1" fill="#93a078"/><rect x="38" y="9" width="3" height="1" fill="#202a24"/><rect x="41" y="9" width="2" height="1" fill="#93a078"/><rect x="43" y="9" width="1" height="1" fill="#202a24"/><rect x="63" y="9" width="1" height="1" fill="#202a24"/><rect x="64" y="9" width="1" height="1" fill="#93a078"/><rect x="65" y="9" width="1" height="1" fill="#202a24"/><rect x="67" y="9" width="2" height="1" fill="#202a24"/><rect x="69" y="9" width="6" height="1" fill="#93a078"/><rect x="75" y="9" width="1" height="1" fill="#202a24"/><rect x="28" y="10" width="1" height="1" fill="#202a24"/><rect x="29" y="10" width="3" height="1" fill="#93a078"/><rect x="32" y="10" width="2" height="1" fill="#202a24"/><rect x="34" y="10" width="6" height="1" fill="#93a078"/><rect x="40" y="10" width="1" height="1" fill="#52634a"/><rect x="41" y="10" width="2" height="1" fill="#93a078"/><rect x="43" y="10" width="1" height="1" fill="#202a24"/><rect x="63" y="10" width="1" height="1" fill="#202a24"/><rect x="64" y="10" width="2" height="1" fill="#93a078"/><rect x="66" y="10" width="1" height="1" fill="#202a24"/><rect x="67" y="10" width="4" height="1" fill="#93a078"/><rect x="71" y="10" width="1" height="1" fill="#52634a"/><rect x="72" y="10" width="3" height="1" fill="#93a078"/><rect x="75" y="10" width="1" height="1" fill="#202a24"/><rect x="28" y="11" width="1" height="1" fill="#202a24"/><rect x="29" y="11" width="4" height="1" fill="#93a078"/><rect x="33" y="11" width="4" height="1" fill="#d5dab5"/><rect x="37" y="11" width="1" height="1" fill="#93a078"/><rect x="38" y="11" width="1" height="1" fill="#52634a"/><rect x="39" y="11" width="4" height="1" fill="#93a078"/><rect x="43" y="11" width="1" height="1" fill="#202a24"/><rect x="62" y="11" width="2" height="1" fill="#202a24"/><rect x="64" y="11" width="11" height="1" fill="#93a078"/><rect x="75" y="11" width="1" height="1" fill="#202a24"/><rect x="29" y="12" width="2" height="1" fill="#202a24"/><rect x="31" y="12" width="6" height="1" fill="#93a078"/><rect x="37" y="12" width="5" height="1" fill="#d5dab5"/><rect x="42" y="12" width="2" height="1" fill="#93a078"/><rect x="44" y="12" width="1" height="1" fill="#202a24"/><rect x="58" y="12" width="4" height="1" fill="#202a24"/><rect x="62" y="12" width="7" height="1" fill="#93a078"/><rect x="69" y="12" width="3" height="1" fill="#d5dab5"/><rect x="72" y="12" width="3" height="1" fill="#93a078"/><rect x="75" y="12" width="1" height="1" fill="#202a24"/><rect x="31" y="13" width="1" height="1" fill="#202a24"/><rect x="32" y="13" width="10" height="1" fill="#93a078"/><rect x="42" y="13" width="1" height="1" fill="#d5dab5"/><rect x="43" y="13" width="2" height="1" fill="#93a078"/><rect x="45" y="13" width="1" height="1" fill="#202a24"/><rect x="56" y="13" width="2" height="1" fill="#202a24"/><rect x="58" y="13" width="7" height="1" fill="#93a078"/><rect x="65" y="13" width="4" height="1" fill="#d5dab5"/><rect x="69" y="13" width="3" height="1" fill="#93a078"/><rect x="72" y="13" width="1" height="1" fill="#52634a"/><rect x="73" y="13" width="2" height="1" fill="#202a24"/><rect x="32" y="14" width="2" height="1" fill="#202a24"/><rect x="34" y="14" width="9" height="1" fill="#93a078"/><rect x="43" y="14" width="2" height="1" fill="#d5dab5"/><rect x="45" y="14" width="1" height="1" fill="#93a078"/><rect x="46" y="14" width="2" height="1" fill="#202a24"/><rect x="55" y="14" width="1" height="1" fill="#202a24"/><rect x="56" y="14" width="1" height="1" fill="#93a078"/><rect x="57" y="14" width="1" height="1" fill="#52634a"/><rect x="58" y="14" width="3" height="1" fill="#93a078"/><rect x="61" y="14" width="4" height="1" fill="#d5dab5"/><rect x="65" y="14" width="1" height="1" fill="#52634a"/><rect x="66" y="14" width="6" height="1" fill="#93a078"/><rect x="72" y="14" width="1" height="1" fill="#202a24"/><rect x="34" y="15" width="10" height="1" fill="#202a24"/><rect x="44" y="15" width="1" height="1" fill="#93a078"/><rect x="45" y="15" width="1" height="1" fill="#d5dab5"/><rect x="46" y="15" width="2" height="1" fill="#93a078"/><rect x="48" y="15" width="1" height="1" fill="#202a24"/><rect x="55" y="15" width="1" height="1" fill="#202a24"/><rect x="56" y="15" width="3" height="1" fill="#93a078"/><rect x="59" y="15" width="2" height="1" fill="#d5dab5"/><rect x="61" y="15" width="2" height="1" fill="#93a078"/><rect x="63" y="15" width="1" height="1" fill="#52634a"/><rect x="64" y="15" width="6" height="1" fill="#93a078"/><rect x="70" y="15" width="2" height="1" fill="#202a24"/><rect x="44" y="16" width="1" height="1" fill="#202a24"/><rect x="45" y="16" width="1" height="1" fill="#93a078"/><rect x="46" y="16" width="1" height="1" fill="#d5dab5"/><rect x="47" y="16" width="1" height="1" fill="#93a078"/><rect x="48" y="16" width="1" height="1" fill="#52634a"/><rect x="49" y="16" width="1" height="1" fill="#202a24"/><rect x="54" y="16" width="1" height="1" fill="#202a24"/><rect x="55" y="16" width="8" height="1" fill="#93a078"/><rect x="63" y="16" width="1" height="1" fill="#52634a"/><rect x="64" y="16" width="4" height="1" fill="#93a078"/><rect x="68" y="16" width="2" height="1" fill="#202a24"/><rect x="39" y="17" width="1" height="1" fill="#202a24"/><rect x="45" y="17" width="2" height="1" fill="#202a24"/><rect x="47" y="17" width="1" height="1" fill="#52634a"/><rect x="48" y="17" width="1" height="1" fill="#93a078"/><rect x="49" y="17" width="1" height="1" fill="#202a24"/><rect x="53" y="17" width="1" height="1" fill="#202a24"/><rect x="54" y="17" width="2" height="1" fill="#93a078"/><rect x="56" y="17" width="12" height="1" fill="#202a24"/><rect x="37" y="18" width="2" height="1" fill="#202a24"/><rect x="39" y="18" width="1" height="1" fill="#93a078"/><rect x="40" y="18" width="2" height="1" fill="#202a24"/><rect x="47" y="18" width="1" height="1" fill="#202a24"/><rect x="48" y="18" width="1" height="1" fill="#93a078"/><rect x="49" y="18" width="1" height="1" fill="#202a24"/><rect x="53" y="18" width="3" height="1" fill="#202a24"/><rect x="59" y="18" width="2" height="1" fill="#202a24"/><rect x="61" y="18" width="3" height="1" fill="#93a078"/><rect x="64" y="18" width="3" height="1" fill="#202a24"/><rect x="35" y="19" width="2" height="1" fill="#202a24"/><rect x="37" y="19" width="5" height="1" fill="#93a078"/><rect x="42" y="19" width="2" height="1" fill="#202a24"/><rect x="46" y="19" width="1" height="1" fill="#202a24"/><rect x="47" y="19" width="1" height="1" fill="#52634a"/><rect x="48" y="19" width="6" height="1" fill="#202a24"/><rect x="58" y="19" width="1" height="1" fill="#202a24"/><rect x="59" y="19" width="6" height="1" fill="#93a078"/><rect x="65" y="19" width="1" height="1" fill="#202a24"/><rect x="36" y="20" width="1" height="1" fill="#202a24"/><rect x="37" y="20" width="3" height="1" fill="#93a078"/><rect x="40" y="20" width="1" height="1" fill="#52634a"/><rect x="41" y="20" width="1" height="1" fill="#93a078"/><rect x="42" y="20" width="1" height="1" fill="#52634a"/><rect x="43" y="20" width="1" height="1" fill="#93a078"/><rect x="44" y="20" width="1" height="1" fill="#202a24"/><rect x="46" y="20" width="1" height="1" fill="#202a24"/><rect x="47" y="20" width="2" height="1" fill="#52634a"/><rect x="49" y="20" width="1" height="1" fill="#202a24"/><rect x="50" y="20" width="4" height="1" fill="#52634a"/><rect x="54" y="20" width="1" height="1" fill="#202a24"/><rect x="56" y="20" width="2" height="1" fill="#202a24"/><rect x="58" y="20" width="1" height="1" fill="#93a078"/><rect x="59" y="20" width="1" height="1" fill="#52634a"/><rect x="60" y="20" width="4" height="1" fill="#93a078"/><rect x="64" y="20" width="1" height="1" fill="#202a24"/><rect x="37" y="21" width="2" height="1" fill="#202a24"/><rect x="39" y="21" width="6" height="1" fill="#93a078"/><rect x="45" y="21" width="2" height="1" fill="#202a24"/><rect x="47" y="21" width="8" height="1" fill="#52634a"/><rect x="55" y="21" width="2" height="1" fill="#202a24"/><rect x="57" y="21" width="5" height="1" fill="#93a078"/><rect x="62" y="21" width="2" height="1" fill="#202a24"/><rect x="39" y="22" width="1" height="1" fill="#202a24"/><rect x="40" y="22" width="1" height="1" fill="#52634a"/><rect x="41" y="22" width="6" height="1" fill="#93a078"/><rect x="47" y="22" width="1" height="1" fill="#202a24"/><rect x="48" y="22" width="8" height="1" fill="#52634a"/><rect x="56" y="22" width="3" height="1" fill="#202a24"/><rect x="59" y="22" width="2" height="1" fill="#93a078"/><rect x="61" y="22" width="1" height="1" fill="#202a24"/><rect x="37" y="23" width="4" height="1" fill="#202a24"/><rect x="41" y="23" width="4" height="1" fill="#93a078"/><rect x="45" y="23" width="2" height="1" fill="#202a24"/><rect x="47" y="23" width="3" height="1" fill="#52634a"/><rect x="50" y="23" width="1" height="1" fill="#93a078"/><rect x="51" y="23" width="6" height="1" fill="#52634a"/><rect x="57" y="23" width="1" height="1" fill="#202a24"/><rect x="59" y="23" width="2" height="1" fill="#202a24"/><rect x="34" y="24" width="3" height="1" fill="#202a24"/><rect x="37" y="24" width="3" height="1" fill="#52634a"/><rect x="40" y="24" width="3" height="1" fill="#202a24"/><rect x="43" y="24" width="1" height="1" fill="#93a078"/><rect x="44" y="24" width="1" height="1" fill="#202a24"/><rect x="45" y="24" width="13" height="1" fill="#52634a"/><rect x="58" y="24" width="1" height="1" fill="#202a24"/><rect x="31" y="25" width="3" height="1" fill="#202a24"/><rect x="34" y="25" width="1" height="1" fill="#93a078"/><rect x="35" y="25" width="8" height="1" fill="#52634a"/><rect x="43" y="25" width="1" height="1" fill="#202a24"/><rect x="44" y="25" width="1" height="1" fill="#93a078"/><rect x="45" y="25" width="5" height="1" fill="#52634a"/><rect x="50" y="25" width="1" height="1" fill="#93a078"/><rect x="51" y="25" width="7" height="1" fill="#52634a"/><rect x="58" y="25" width="1" height="1" fill="#202a24"/><rect x="17" y="26" width="14" height="1" fill="#202a24"/><rect x="31" y="26" width="11" height="1" fill="#52634a"/><rect x="42" y="26" width="1" height="1" fill="#93a078"/><rect x="43" y="26" width="1" height="1" fill="#202a24"/><rect x="44" y="26" width="1" height="1" fill="#52634a"/><rect x="45" y="26" width="1" height="1" fill="#93a078"/><rect x="46" y="26" width="5" height="1" fill="#52634a"/><rect x="51" y="26" width="1" height="1" fill="#93a078"/><rect x="52" y="26" width="6" height="1" fill="#52634a"/><rect x="58" y="26" width="1" height="1" fill="#202a24"/><rect x="16" y="27" width="1" height="1" fill="#202a24"/><rect x="17" y="27" width="24" height="1" fill="#52634a"/><rect x="41" y="27" width="1" height="1" fill="#93a078"/><rect x="42" y="27" width="1" height="1" fill="#202a24"/><rect x="43" y="27" width="14" height="1" fill="#52634a"/><rect x="57" y="27" width="1" height="1" fill="#d5dab5"/><rect x="58" y="27" width="1" height="1" fill="#52634a"/><rect x="59" y="27" width="1" height="1" fill="#202a24"/><rect x="9" y="28" width="3" height="1" fill="#202a24"/><rect x="15" y="28" width="1" height="1" fill="#202a24"/><rect x="16" y="28" width="11" height="1" fill="#52634a"/><rect x="27" y="28" width="1" height="1" fill="#93a078"/><rect x="28" y="28" width="14" height="1" fill="#52634a"/><rect x="42" y="28" width="1" height="1" fill="#202a24"/><rect x="43" y="28" width="5" height="1" fill="#52634a"/><rect x="48" y="28" width="1" height="1" fill="#93a078"/><rect x="49" y="28" width="9" height="1" fill="#52634a"/><rect x="58" y="28" width="2" height="1" fill="#202a24"/><rect x="9" y="29" width="6" height="1" fill="#202a24"/><rect x="15" y="29" width="19" height="1" fill="#52634a"/><rect x="34" y="29" width="1" height="1" fill="#93a078"/><rect x="35" y="29" width="3" height="1" fill="#52634a"/><rect x="38" y="29" width="1" height="1" fill="#93a078"/><rect x="39" y="29" width="1" height="1" fill="#52634a"/><rect x="40" y="29" width="1" height="1" fill="#93a078"/><rect x="41" y="29" width="2" height="1" fill="#52634a"/><rect x="43" y="29" width="1" height="1" fill="#202a24"/><rect x="44" y="29" width="1" height="1" fill="#52634a"/><rect x="45" y="29" width="1" height="1" fill="#93a078"/><rect x="46" y="29" width="2" height="1" fill="#52634a"/><rect x="48" y="29" width="1" height="1" fill="#93a078"/><rect x="49" y="29" width="3" height="1" fill="#52634a"/><rect x="52" y="29" width="1" height="1" fill="#202a24"/><rect x="53" y="29" width="6" height="1" fill="#52634a"/><rect x="59" y="29" width="1" height="1" fill="#202a24"/><rect x="8" y="30" width="7" height="1" fill="#202a24"/><rect x="15" y="30" width="3" height="1" fill="#52634a"/><rect x="18" y="30" width="1" height="1" fill="#93a078"/><rect x="19" y="30" width="4" height="1" fill="#52634a"/><rect x="23" y="30" width="1" height="1" fill="#93a078"/><rect x="24" y="30" width="2" height="1" fill="#52634a"/><rect x="26" y="30" width="1" height="1" fill="#93a078"/><rect x="27" y="30" width="7" height="1" fill="#52634a"/><rect x="34" y="30" width="1" height="1" fill="#93a078"/><rect x="35" y="30" width="7" height="1" fill="#52634a"/><rect x="42" y="30" width="1" height="1" fill="#93a078"/><rect x="43" y="30" width="1" height="1" fill="#202a24"/><rect x="44" y="30" width="8" height="1" fill="#52634a"/><rect x="52" y="30" width="2" height="1" fill="#202a24"/><rect x="54" y="30" width="5" height="1" fill="#52634a"/><rect x="59" y="30" width="1" height="1" fill="#202a24"/><rect x="8" y="31" width="2" height="1" fill="#202a24"/><rect x="12" y="31" width="3" height="1" fill="#202a24"/><rect x="15" y="31" width="14" height="1" fill="#52634a"/><rect x="29" y="31" width="1" height="1" fill="#93a078"/><rect x="30" y="31" width="13" height="1" fill="#52634a"/><rect x="43" y="31" width="1" height="1" fill="#202a24"/><rect x="44" y="31" width="8" height="1" fill="#52634a"/><rect x="52" y="31" width="2" height="1" fill="#202a24"/><rect x="54" y="31" width="6" height="1" fill="#52634a"/><rect x="60" y="31" width="2" height="1" fill="#202a24"/><rect x="8" y="32" width="2" height="1" fill="#202a24"/><rect x="12" y="32" width="1" height="1" fill="#202a24"/><rect x="13" y="32" width="31" height="1" fill="#52634a"/><rect x="44" y="32" width="1" height="1" fill="#202a24"/><rect x="45" y="32" width="5" height="1" fill="#52634a"/><rect x="50" y="32" width="1" height="1" fill="#202a24"/><rect x="51" y="32" width="1" height="1" fill="#93a078"/><rect x="52" y="32" width="1" height="1" fill="#202a24"/><rect x="53" y="32" width="1" height="1" fill="#52634a"/><rect x="54" y="32" width="1" height="1" fill="#202a24"/><rect x="55" y="32" width="7" height="1" fill="#52634a"/><rect x="62" y="32" width="2" height="1" fill="#202a24"/><rect x="8" y="33" width="2" height="1" fill="#202a24"/><rect x="13" y="33" width="1" height="1" fill="#202a24"/><rect x="14" y="33" width="1" height="1" fill="#93a078"/><rect x="15" y="33" width="29" height="1" fill="#52634a"/><rect x="44" y="33" width="1" height="1" fill="#202a24"/><rect x="45" y="33" width="3" height="1" fill="#52634a"/><rect x="48" y="33" width="2" height="1" fill="#202a24"/><rect x="50" y="33" width="1" height="1" fill="#52634a"/><rect x="51" y="33" width="2" height="1" fill="#202a24"/><rect x="53" y="33" width="2" height="1" fill="#52634a"/><rect x="55" y="33" width="1" height="1" fill="#202a24"/><rect x="56" y="33" width="8" height="1" fill="#52634a"/><rect x="64" y="33" width="1" height="1" fill="#202a24"/><rect x="13" y="34" width="1" height="1" fill="#202a24"/><rect x="14" y="34" width="16" height="1" fill="#52634a"/><rect x="30" y="34" width="1" height="1" fill="#93a078"/><rect x="31" y="34" width="14" height="1" fill="#52634a"/><rect x="45" y="34" width="8" height="1" fill="#202a24"/><rect x="53" y="34" width="2" height="1" fill="#52634a"/><rect x="55" y="34" width="1" height="1" fill="#202a24"/><rect x="56" y="34" width="9" height="1" fill="#52634a"/><rect x="65" y="34" width="2" height="1" fill="#202a24"/><rect x="14" y="35" width="1" height="1" fill="#202a24"/><rect x="15" y="35" width="8" height="1" fill="#52634a"/><rect x="23" y="35" width="1" height="1" fill="#93a078"/><rect x="24" y="35" width="7" height="1" fill="#52634a"/><rect x="31" y="35" width="1" height="1" fill="#93a078"/><rect x="32" y="35" width="10" height="1" fill="#52634a"/><rect x="42" y="35" width="6" height="1" fill="#202a24"/><rect x="48" y="35" width="3" height="1" fill="#93a078"/><rect x="51" y="35" width="1" height="1" fill="#202a24"/><rect x="52" y="35" width="2" height="1" fill="#52634a"/><rect x="54" y="35" width="1" height="1" fill="#93a078"/><rect x="55" y="35" width="1" height="1" fill="#52634a"/><rect x="56" y="35" width="1" height="1" fill="#202a24"/><rect x="57" y="35" width="10" height="1" fill="#52634a"/><rect x="67" y="35" width="2" height="1" fill="#202a24"/><rect x="14" y="36" width="1" height="1" fill="#202a24"/><rect x="15" y="36" width="3" height="1" fill="#52634a"/><rect x="18" y="36" width="1" height="1" fill="#93a078"/><rect x="19" y="36" width="3" height="1" fill="#52634a"/><rect x="22" y="36" width="2" height="1" fill="#202a24"/><rect x="24" y="36" width="21" height="1" fill="#52634a"/><rect x="45" y="36" width="4" height="1" fill="#202a24"/><rect x="49" y="36" width="2" height="1" fill="#93a078"/><rect x="51" y="36" width="1" height="1" fill="#202a24"/><rect x="52" y="36" width="4" height="1" fill="#52634a"/><rect x="56" y="36" width="1" height="1" fill="#93a078"/><rect x="57" y="36" width="1" height="1" fill="#52634a"/><rect x="58" y="36" width="1" height="1" fill="#93a078"/><rect x="59" y="36" width="10" height="1" fill="#52634a"/><rect x="69" y="36" width="1" height="1" fill="#202a24"/><rect x="15" y="37" width="1" height="1" fill="#202a24"/><rect x="16" y="37" width="6" height="1" fill="#52634a"/><rect x="22" y="37" width="1" height="1" fill="#202a24"/><rect x="23" y="37" width="1" height="1" fill="#93a078"/><rect x="24" y="37" width="3" height="1" fill="#202a24"/><rect x="27" y="37" width="1" height="1" fill="#93a078"/><rect x="28" y="37" width="20" height="1" fill="#52634a"/><rect x="48" y="37" width="1" height="1" fill="#202a24"/><rect x="49" y="37" width="2" height="1" fill="#93a078"/><rect x="51" y="37" width="1" height="1" fill="#202a24"/><rect x="52" y="37" width="4" height="1" fill="#52634a"/><rect x="56" y="37" width="1" height="1" fill="#202a24"/><rect x="57" y="37" width="6" height="1" fill="#93a078"/><rect x="63" y="37" width="6" height="1" fill="#52634a"/><rect x="69" y="37" width="1" height="1" fill="#202a24"/><rect x="15" y="38" width="1" height="1" fill="#202a24"/><rect x="16" y="38" width="6" height="1" fill="#52634a"/><rect x="22" y="38" width="1" height="1" fill="#202a24"/><rect x="23" y="38" width="2" height="1" fill="#93a078"/><rect x="25" y="38" width="1" height="1" fill="#52634a"/><rect x="26" y="38" width="1" height="1" fill="#93a078"/><rect x="27" y="38" width="2" height="1" fill="#202a24"/><rect x="29" y="38" width="4" height="1" fill="#52634a"/><rect x="33" y="38" width="1" height="1" fill="#93a078"/><rect x="34" y="38" width="14" height="1" fill="#52634a"/><rect x="48" y="38" width="1" height="1" fill="#202a24"/><rect x="49" y="38" width="2" height="1" fill="#93a078"/><rect x="51" y="38" width="1" height="1" fill="#202a24"/><rect x="52" y="38" width="4" height="1" fill="#52634a"/><rect x="56" y="38" width="1" height="1" fill="#202a24"/><rect x="57" y="38" width="1" height="1" fill="#52634a"/><rect x="58" y="38" width="8" height="1" fill="#93a078"/><rect x="66" y="38" width="1" height="1" fill="#202a24"/><rect x="67" y="38" width="2" height="1" fill="#93a078"/><rect x="69" y="38" width="1" height="1" fill="#202a24"/><rect x="16" y="39" width="3" height="1" fill="#202a24"/><rect x="19" y="39" width="1" height="1" fill="#93a078"/><rect x="20" y="39" width="2" height="1" fill="#52634a"/><rect x="22" y="39" width="1" height="1" fill="#202a24"/><rect x="23" y="39" width="1" height="1" fill="#52634a"/><rect x="24" y="39" width="4" height="1" fill="#93a078"/><rect x="28" y="39" width="1" height="1" fill="#202a24"/><rect x="29" y="39" width="5" height="1" fill="#52634a"/><rect x="34" y="39" width="1" height="1" fill="#93a078"/><rect x="35" y="39" width="2" height="1" fill="#52634a"/><rect x="37" y="39" width="1" height="1" fill="#93a078"/><rect x="38" y="39" width="9" height="1" fill="#52634a"/><rect x="47" y="39" width="1" height="1" fill="#93a078"/><rect x="48" y="39" width="1" height="1" fill="#52634a"/><rect x="49" y="39" width="1" height="1" fill="#202a24"/><rect x="50" y="39" width="1" height="1" fill="#93a078"/><rect x="51" y="39" width="1" height="1" fill="#202a24"/><rect x="52" y="39" width="4" height="1" fill="#52634a"/><rect x="56" y="39" width="1" height="1" fill="#202a24"/><rect x="57" y="39" width="2" height="1" fill="#52634a"/><rect x="59" y="39" width="10" height="1" fill="#93a078"/><rect x="69" y="39" width="1" height="1" fill="#52634a"/><rect x="70" y="39" width="1" height="1" fill="#202a24"/><rect x="16" y="40" width="1" height="1" fill="#202a24"/><rect x="17" y="40" width="1" height="1" fill="#52634a"/><rect x="18" y="40" width="1" height="1" fill="#93a078"/><rect x="19" y="40" width="4" height="1" fill="#202a24"/><rect x="23" y="40" width="5" height="1" fill="#93a078"/><rect x="28" y="40" width="1" height="1" fill="#202a24"/><rect x="29" y="40" width="1" height="1" fill="#52634a"/><rect x="30" y="40" width="1" height="1" fill="#93a078"/><rect x="31" y="40" width="12" height="1" fill="#52634a"/><rect x="43" y="40" width="2" height="1" fill="#93a078"/><rect x="45" y="40" width="4" height="1" fill="#52634a"/><rect x="49" y="40" width="1" height="1" fill="#202a24"/><rect x="50" y="40" width="1" height="1" fill="#93a078"/><rect x="51" y="40" width="1" height="1" fill="#202a24"/><rect x="52" y="40" width="4" height="1" fill="#52634a"/><rect x="56" y="40" width="2" height="1" fill="#202a24"/><rect x="58" y="40" width="2" height="1" fill="#52634a"/><rect x="60" y="40" width="9" height="1" fill="#93a078"/><rect x="69" y="40" width="1" height="1" fill="#52634a"/><rect x="70" y="40" width="1" height="1" fill="#202a24"/><rect x="16" y="41" width="1" height="1" fill="#202a24"/><rect x="17" y="41" width="4" height="1" fill="#52634a"/><rect x="21" y="41" width="2" height="1" fill="#202a24"/><rect x="23" y="41" width="5" height="1" fill="#93a078"/><rect x="28" y="41" width="1" height="1" fill="#202a24"/><rect x="29" y="41" width="18" height="1" fill="#52634a"/><rect x="47" y="41" width="1" height="1" fill="#93a078"/><rect x="48" y="41" width="2" height="1" fill="#202a24"/><rect x="50" y="41" width="1" height="1" fill="#93a078"/><rect x="51" y="41" width="1" height="1" fill="#202a24"/><rect x="52" y="41" width="4" height="1" fill="#52634a"/><rect x="56" y="41" width="1" height="1" fill="#202a24"/><rect x="58" y="41" width="1" height="1" fill="#202a24"/><rect x="59" y="41" width="11" height="1" fill="#52634a"/><rect x="70" y="41" width="1" height="1" fill="#202a24"/><rect x="15" y="42" width="1" height="1" fill="#202a24"/><rect x="16" y="42" width="5" height="1" fill="#52634a"/><rect x="21" y="42" width="1" height="1" fill="#202a24"/><rect x="23" y="42" width="1" height="1" fill="#202a24"/><rect x="24" y="42" width="1" height="1" fill="#52634a"/><rect x="25" y="42" width="3" height="1" fill="#93a078"/><rect x="28" y="42" width="22" height="1" fill="#202a24"/><rect x="50" y="42" width="1" height="1" fill="#93a078"/><rect x="51" y="42" width="1" height="1" fill="#202a24"/><rect x="52" y="42" width="4" height="1" fill="#52634a"/><rect x="56" y="42" width="1" height="1" fill="#202a24"/><rect x="59" y="42" width="2" height="1" fill="#202a24"/><rect x="61" y="42" width="5" height="1" fill="#52634a"/><rect x="66" y="42" width="5" height="1" fill="#202a24"/><rect x="15" y="43" width="1" height="1" fill="#202a24"/><rect x="16" y="43" width="5" height="1" fill="#52634a"/><rect x="21" y="43" width="1" height="1" fill="#202a24"/><rect x="23" y="43" width="1" height="1" fill="#202a24"/><rect x="24" y="43" width="4" height="1" fill="#93a078"/><rect x="28" y="43" width="1" height="1" fill="#202a24"/><rect x="43" y="43" width="1" height="1" fill="#202a24"/><rect x="44" y="43" width="4" height="1" fill="#52634a"/><rect x="48" y="43" width="1" height="1" fill="#202a24"/><rect x="50" y="43" width="2" height="1" fill="#202a24"/><rect x="52" y="43" width="4" height="1" fill="#52634a"/><rect x="56" y="43" width="1" height="1" fill="#202a24"/><rect x="61" y="43" width="5" height="1" fill="#202a24"/><rect x="15" y="44" width="1" height="1" fill="#202a24"/><rect x="16" y="44" width="5" height="1" fill="#52634a"/><rect x="21" y="44" width="1" height="1" fill="#202a24"/><rect x="23" y="44" width="1" height="1" fill="#202a24"/><rect x="24" y="44" width="3" height="1" fill="#93a078"/><rect x="27" y="44" width="1" height="1" fill="#202a24"/><rect x="43" y="44" width="1" height="1" fill="#202a24"/><rect x="44" y="44" width="4" height="1" fill="#52634a"/><rect x="48" y="44" width="1" height="1" fill="#202a24"/><rect x="50" y="44" width="1" height="1" fill="#202a24"/><rect x="51" y="44" width="1" height="1" fill="#93a078"/><rect x="52" y="44" width="1" height="1" fill="#202a24"/><rect x="53" y="44" width="3" height="1" fill="#52634a"/><rect x="56" y="44" width="1" height="1" fill="#202a24"/><rect x="15" y="45" width="1" height="1" fill="#202a24"/><rect x="16" y="45" width="4" height="1" fill="#52634a"/><rect x="20" y="45" width="1" height="1" fill="#202a24"/><rect x="23" y="45" width="1" height="1" fill="#202a24"/><rect x="24" y="45" width="3" height="1" fill="#93a078"/><rect x="27" y="45" width="1" height="1" fill="#202a24"/><rect x="43" y="45" width="1" height="1" fill="#202a24"/><rect x="44" y="45" width="4" height="1" fill="#52634a"/><rect x="48" y="45" width="1" height="1" fill="#202a24"/><rect x="50" y="45" width="1" height="1" fill="#202a24"/><rect x="51" y="45" width="1" height="1" fill="#93a078"/><rect x="52" y="45" width="1" height="1" fill="#202a24"/><rect x="53" y="45" width="3" height="1" fill="#52634a"/><rect x="56" y="45" width="1" height="1" fill="#202a24"/><rect x="15" y="46" width="1" height="1" fill="#202a24"/><rect x="16" y="46" width="4" height="1" fill="#52634a"/><rect x="20" y="46" width="1" height="1" fill="#202a24"/><rect x="23" y="46" width="1" height="1" fill="#202a24"/><rect x="24" y="46" width="3" height="1" fill="#93a078"/><rect x="27" y="46" width="1" height="1" fill="#202a24"/><rect x="43" y="46" width="1" height="1" fill="#202a24"/><rect x="44" y="46" width="4" height="1" fill="#52634a"/><rect x="48" y="46" width="1" height="1" fill="#202a24"/><rect x="50" y="46" width="1" height="1" fill="#202a24"/><rect x="51" y="46" width="1" height="1" fill="#52634a"/><rect x="52" y="46" width="1" height="1" fill="#202a24"/><rect x="53" y="46" width="2" height="1" fill="#52634a"/><rect x="55" y="46" width="1" height="1" fill="#202a24"/><rect x="15" y="47" width="1" height="1" fill="#202a24"/><rect x="16" y="47" width="4" height="1" fill="#52634a"/><rect x="20" y="47" width="1" height="1" fill="#202a24"/><rect x="23" y="47" width="1" height="1" fill="#202a24"/><rect x="24" y="47" width="3" height="1" fill="#93a078"/><rect x="27" y="47" width="1" height="1" fill="#202a24"/><rect x="43" y="47" width="1" height="1" fill="#202a24"/><rect x="44" y="47" width="4" height="1" fill="#52634a"/><rect x="48" y="47" width="1" height="1" fill="#202a24"/><rect x="50" y="47" width="1" height="1" fill="#202a24"/><rect x="51" y="47" width="1" height="1" fill="#93a078"/><rect x="52" y="47" width="4" height="1" fill="#202a24"/><rect x="15" y="48" width="1" height="1" fill="#202a24"/><rect x="16" y="48" width="4" height="1" fill="#52634a"/><rect x="20" y="48" width="1" height="1" fill="#202a24"/><rect x="23" y="48" width="1" height="1" fill="#202a24"/><rect x="24" y="48" width="1" height="1" fill="#52634a"/><rect x="25" y="48" width="2" height="1" fill="#93a078"/><rect x="27" y="48" width="1" height="1" fill="#202a24"/><rect x="43" y="48" width="1" height="1" fill="#202a24"/><rect x="44" y="48" width="4" height="1" fill="#52634a"/><rect x="48" y="48" width="1" height="1" fill="#202a24"/><rect x="51" y="48" width="2" height="1" fill="#202a24"/><rect x="53" y="48" width="2" height="1" fill="#93a078"/><rect x="55" y="48" width="1" height="1" fill="#202a24"/><rect x="15" y="49" width="1" height="1" fill="#202a24"/><rect x="16" y="49" width="4" height="1" fill="#52634a"/><rect x="20" y="49" width="1" height="1" fill="#202a24"/><rect x="23" y="49" width="1" height="1" fill="#202a24"/><rect x="24" y="49" width="3" height="1" fill="#93a078"/><rect x="27" y="49" width="1" height="1" fill="#202a24"/><rect x="43" y="49" width="1" height="1" fill="#202a24"/><rect x="44" y="49" width="4" height="1" fill="#52634a"/><rect x="48" y="49" width="1" height="1" fill="#202a24"/><rect x="51" y="49" width="1" height="1" fill="#202a24"/><rect x="52" y="49" width="1" height="1" fill="#52634a"/><rect x="53" y="49" width="2" height="1" fill="#93a078"/><rect x="55" y="49" width="1" height="1" fill="#202a24"/><rect x="15" y="50" width="1" height="1" fill="#202a24"/><rect x="16" y="50" width="3" height="1" fill="#52634a"/><rect x="19" y="50" width="1" height="1" fill="#202a24"/><rect x="22" y="50" width="1" height="1" fill="#202a24"/><rect x="23" y="50" width="4" height="1" fill="#93a078"/><rect x="27" y="50" width="1" height="1" fill="#202a24"/><rect x="43" y="50" width="1" height="1" fill="#202a24"/><rect x="44" y="50" width="4" height="1" fill="#52634a"/><rect x="48" y="50" width="1" height="1" fill="#202a24"/><rect x="51" y="50" width="1" height="1" fill="#202a24"/><rect x="52" y="50" width="3" height="1" fill="#93a078"/><rect x="55" y="50" width="1" height="1" fill="#202a24"/><rect x="15" y="51" width="1" height="1" fill="#202a24"/><rect x="16" y="51" width="3" height="1" fill="#52634a"/><rect x="19" y="51" width="1" height="1" fill="#202a24"/><rect x="22" y="51" width="1" height="1" fill="#202a24"/><rect x="23" y="51" width="3" height="1" fill="#93a078"/><rect x="26" y="51" width="1" height="1" fill="#202a24"/><rect x="43" y="51" width="1" height="1" fill="#202a24"/><rect x="44" y="51" width="4" height="1" fill="#52634a"/><rect x="48" y="51" width="1" height="1" fill="#202a24"/><rect x="51" y="51" width="1" height="1" fill="#202a24"/><rect x="52" y="51" width="4" height="1" fill="#93a078"/><rect x="56" y="51" width="1" height="1" fill="#202a24"/><rect x="15" y="52" width="1" height="1" fill="#202a24"/><rect x="16" y="52" width="3" height="1" fill="#52634a"/><rect x="19" y="52" width="1" height="1" fill="#202a24"/><rect x="22" y="52" width="1" height="1" fill="#202a24"/><rect x="23" y="52" width="3" height="1" fill="#93a078"/><rect x="26" y="52" width="1" height="1" fill="#202a24"/><rect x="43" y="52" width="1" height="1" fill="#202a24"/><rect x="44" y="52" width="4" height="1" fill="#52634a"/><rect x="48" y="52" width="1" height="1" fill="#202a24"/><rect x="52" y="52" width="1" height="1" fill="#202a24"/><rect x="53" y="52" width="3" height="1" fill="#93a078"/><rect x="56" y="52" width="1" height="1" fill="#202a24"/><rect x="15" y="53" width="1" height="1" fill="#202a24"/><rect x="16" y="53" width="3" height="1" fill="#52634a"/><rect x="19" y="53" width="1" height="1" fill="#202a24"/><rect x="22" y="53" width="1" height="1" fill="#202a24"/><rect x="23" y="53" width="3" height="1" fill="#93a078"/><rect x="26" y="53" width="1" height="1" fill="#202a24"/><rect x="43" y="53" width="1" height="1" fill="#202a24"/><rect x="44" y="53" width="3" height="1" fill="#52634a"/><rect x="47" y="53" width="1" height="1" fill="#202a24"/><rect x="52" y="53" width="1" height="1" fill="#202a24"/><rect x="53" y="53" width="3" height="1" fill="#93a078"/><rect x="56" y="53" width="1" height="1" fill="#202a24"/><rect x="14" y="54" width="1" height="1" fill="#202a24"/><rect x="15" y="54" width="4" height="1" fill="#52634a"/><rect x="19" y="54" width="1" height="1" fill="#202a24"/><rect x="21" y="54" width="1" height="1" fill="#202a24"/><rect x="22" y="54" width="4" height="1" fill="#93a078"/><rect x="26" y="54" width="1" height="1" fill="#202a24"/><rect x="43" y="54" width="1" height="1" fill="#202a24"/><rect x="44" y="54" width="3" height="1" fill="#52634a"/><rect x="47" y="54" width="1" height="1" fill="#202a24"/><rect x="52" y="54" width="1" height="1" fill="#202a24"/><rect x="53" y="54" width="1" height="1" fill="#52634a"/><rect x="54" y="54" width="2" height="1" fill="#93a078"/><rect x="56" y="54" width="1" height="1" fill="#202a24"/><rect x="14" y="55" width="1" height="1" fill="#202a24"/><rect x="15" y="55" width="4" height="1" fill="#52634a"/><rect x="19" y="55" width="1" height="1" fill="#202a24"/><rect x="21" y="55" width="1" height="1" fill="#202a24"/><rect x="22" y="55" width="3" height="1" fill="#93a078"/><rect x="25" y="55" width="1" height="1" fill="#202a24"/><rect x="43" y="55" width="1" height="1" fill="#202a24"/><rect x="44" y="55" width="3" height="1" fill="#52634a"/><rect x="47" y="55" width="1" height="1" fill="#202a24"/><rect x="53" y="55" width="1" height="1" fill="#202a24"/><rect x="54" y="55" width="3" height="1" fill="#93a078"/><rect x="57" y="55" width="1" height="1" fill="#202a24"/><rect x="14" y="56" width="1" height="1" fill="#202a24"/><rect x="15" y="56" width="3" height="1" fill="#52634a"/><rect x="18" y="56" width="1" height="1" fill="#202a24"/><rect x="21" y="56" width="1" height="1" fill="#202a24"/><rect x="22" y="56" width="3" height="1" fill="#93a078"/><rect x="25" y="56" width="1" height="1" fill="#202a24"/><rect x="43" y="56" width="1" height="1" fill="#202a24"/><rect x="44" y="56" width="3" height="1" fill="#52634a"/><rect x="47" y="56" width="1" height="1" fill="#202a24"/><rect x="53" y="56" width="1" height="1" fill="#202a24"/><rect x="54" y="56" width="3" height="1" fill="#93a078"/><rect x="57" y="56" width="1" height="1" fill="#202a24"/><rect x="14" y="57" width="1" height="1" fill="#202a24"/><rect x="15" y="57" width="3" height="1" fill="#52634a"/><rect x="18" y="57" width="1" height="1" fill="#202a24"/><rect x="21" y="57" width="1" height="1" fill="#202a24"/><rect x="22" y="57" width="3" height="1" fill="#93a078"/><rect x="25" y="57" width="1" height="1" fill="#202a24"/><rect x="43" y="57" width="1" height="1" fill="#202a24"/><rect x="44" y="57" width="3" height="1" fill="#52634a"/><rect x="47" y="57" width="1" height="1" fill="#202a24"/><rect x="53" y="57" width="1" height="1" fill="#202a24"/><rect x="54" y="57" width="3" height="1" fill="#93a078"/><rect x="57" y="57" width="1" height="1" fill="#202a24"/><rect x="14" y="58" width="1" height="1" fill="#202a24"/><rect x="15" y="58" width="3" height="1" fill="#52634a"/><rect x="18" y="58" width="1" height="1" fill="#202a24"/><rect x="20" y="58" width="1" height="1" fill="#202a24"/><rect x="21" y="58" width="3" height="1" fill="#93a078"/><rect x="24" y="58" width="1" height="1" fill="#202a24"/><rect x="42" y="58" width="1" height="1" fill="#202a24"/><rect x="43" y="58" width="4" height="1" fill="#52634a"/><rect x="47" y="58" width="1" height="1" fill="#202a24"/><rect x="53" y="58" width="1" height="1" fill="#202a24"/><rect x="54" y="58" width="4" height="1" fill="#93a078"/><rect x="58" y="58" width="1" height="1" fill="#202a24"/><rect x="14" y="59" width="1" height="1" fill="#202a24"/><rect x="15" y="59" width="3" height="1" fill="#52634a"/><rect x="18" y="59" width="1" height="1" fill="#202a24"/><rect x="20" y="59" width="1" height="1" fill="#202a24"/><rect x="21" y="59" width="3" height="1" fill="#93a078"/><rect x="24" y="59" width="1" height="1" fill="#202a24"/><rect x="42" y="59" width="1" height="1" fill="#202a24"/><rect x="43" y="59" width="4" height="1" fill="#52634a"/><rect x="47" y="59" width="1" height="1" fill="#202a24"/><rect x="54" y="59" width="1" height="1" fill="#202a24"/><rect x="55" y="59" width="3" height="1" fill="#93a078"/><rect x="58" y="59" width="1" height="1" fill="#202a24"/><rect x="14" y="60" width="1" height="1" fill="#202a24"/><rect x="15" y="60" width="3" height="1" fill="#52634a"/><rect x="18" y="60" width="1" height="1" fill="#202a24"/><rect x="20" y="60" width="1" height="1" fill="#202a24"/><rect x="21" y="60" width="3" height="1" fill="#93a078"/><rect x="24" y="60" width="1" height="1" fill="#202a24"/><rect x="42" y="60" width="1" height="1" fill="#202a24"/><rect x="43" y="60" width="4" height="1" fill="#52634a"/><rect x="47" y="60" width="1" height="1" fill="#202a24"/><rect x="54" y="60" width="1" height="1" fill="#202a24"/><rect x="55" y="60" width="3" height="1" fill="#93a078"/><rect x="58" y="60" width="1" height="1" fill="#202a24"/><rect x="13" y="61" width="1" height="1" fill="#202a24"/><rect x="14" y="61" width="4" height="1" fill="#52634a"/><rect x="18" y="61" width="1" height="1" fill="#202a24"/><rect x="20" y="61" width="1" height="1" fill="#202a24"/><rect x="21" y="61" width="3" height="1" fill="#93a078"/><rect x="24" y="61" width="1" height="1" fill="#202a24"/><rect x="42" y="61" width="1" height="1" fill="#202a24"/><rect x="43" y="61" width="3" height="1" fill="#52634a"/><rect x="46" y="61" width="1" height="1" fill="#202a24"/><rect x="54" y="61" width="1" height="1" fill="#202a24"/><rect x="55" y="61" width="3" height="1" fill="#93a078"/><rect x="58" y="61" width="1" height="1" fill="#202a24"/><rect x="13" y="62" width="1" height="1" fill="#202a24"/><rect x="14" y="62" width="3" height="1" fill="#52634a"/><rect x="17" y="62" width="1" height="1" fill="#202a24"/><rect x="19" y="62" width="1" height="1" fill="#202a24"/><rect x="20" y="62" width="3" height="1" fill="#93a078"/><rect x="23" y="62" width="1" height="1" fill="#202a24"/><rect x="42" y="62" width="1" height="1" fill="#202a24"/><rect x="43" y="62" width="3" height="1" fill="#52634a"/><rect x="46" y="62" width="1" height="1" fill="#202a24"/><rect x="55" y="62" width="1" height="1" fill="#202a24"/><rect x="56" y="62" width="3" height="1" fill="#93a078"/><rect x="59" y="62" width="1" height="1" fill="#202a24"/><rect x="13" y="63" width="1" height="1" fill="#202a24"/><rect x="14" y="63" width="3" height="1" fill="#52634a"/><rect x="17" y="63" width="1" height="1" fill="#202a24"/><rect x="19" y="63" width="5" height="1" fill="#202a24"/><rect x="42" y="63" width="1" height="1" fill="#202a24"/><rect x="43" y="63" width="3" height="1" fill="#52634a"/><rect x="46" y="63" width="1" height="1" fill="#202a24"/><rect x="54" y="63" width="6" height="1" fill="#202a24"/><rect x="12" y="64" width="6" height="1" fill="#202a24"/><rect x="19" y="64" width="5" height="1" fill="#202a24"/><rect x="42" y="64" width="1" height="1" fill="#202a24"/><rect x="43" y="64" width="3" height="1" fill="#52634a"/><rect x="46" y="64" width="1" height="1" fill="#202a24"/><rect x="54" y="64" width="6" height="1" fill="#202a24"/><rect x="12" y="65" width="5" height="1" fill="#202a24"/><rect x="42" y="65" width="5" height="1" fill="#202a24"/><rect x="42" y="66" width="5" height="1" fill="#202a24"/></svg>
