<svg xmlns="http://www.w3.org/2000/svg" width="80" height="72" viewBox="0 0 80 72" role="img" aria-label="Pennamber: original pixel field portrait inspired by Monarch butterfly" shape-rendering="crispEdges"><title>Pennamber: original pixel field portrait inspired by Monarch butterfly</title><rect x="67" y="7" width="2" height="1" fill="#202a24"/><rect x="15" y="8" width="2" height="1" fill="#202a24"/><rect x="65" y="8" width="6" height="1" fill="#202a24"/><rect x="13" y="9" width="6" height="1" fill="#202a24"/><rect x="63" y="9" width="10" height="1" fill="#202a24"/><rect x="11" y="10" width="10" height="1" fill="#202a24"/><rect x="61" y="10" width="13" height="1" fill="#202a24"/><rect x="9" y="11" width="14" height="1" fill="#202a24"/><rect x="59" y="11" width="11" height="1" fill="#202a24"/><rect x="70" y="11" width="1" height="1" fill="#d5dab5"/><rect x="71" y="11" width="3" height="1" fill="#202a24"/><rect x="9" y="12" width="3" height="1" fill="#202a24"/><rect x="12" y="12" width="1" height="1" fill="#d5dab5"/><rect x="13" y="12" width="12" height="1" fill="#202a24"/><rect x="57" y="12" width="11" height="1" fill="#202a24"/><rect x="68" y="12" width="1" height="1" fill="#93a078"/><rect x="69" y="12" width="5" height="1" fill="#202a24"/><rect x="9" y="13" width="5" height="1" fill="#202a24"/><rect x="14" y="13" width="1" height="1" fill="#93a078"/><rect x="15" y="13" width="12" height="1" fill="#202a24"/><rect x="55" y="13" width="12" height="1" fill="#202a24"/><rect x="67" y="13" width="1" height="1" fill="#93a078"/><rect x="68" y="13" width="6" height="1" fill="#202a24"/><rect x="9" y="14" width="6" height="1" fill="#202a24"/><rect x="15" y="14" width="1" height="1" fill="#93a078"/><rect x="16" y="14" width="13" height="1" fill="#202a24"/><rect x="54" y="14" width="12" height="1" fill="#202a24"/><rect x="66" y="14" width="2" height="1" fill="#93a078"/><rect x="68" y="14" width="5" height="1" fill="#202a24"/><rect x="9" y="15" width="6" height="1" fill="#202a24"/><rect x="15" y="15" width="3" height="1" fill="#93a078"/><rect x="18" y="15" width="12" height="1" fill="#202a24"/><rect x="54" y="15" width="10" height="1" fill="#202a24"/><rect x="64" y="15" width="4" height="1" fill="#93a078"/><rect x="68" y="15" width="5" height="1" fill="#202a24"/><rect x="9" y="16" width="6" height="1" fill="#202a24"/><rect x="15" y="16" width="1" height="1" fill="#52634a"/><rect x="16" y="16" width="4" height="1" fill="#93a078"/><rect x="20" y="16" width="11" height="1" fill="#202a24"/><rect x="53" y="16" width="10" height="1" fill="#202a24"/><rect x="63" y="16" width="1" height="1" fill="#52634a"/><rect x="64" y="16" width="2" height="1" fill="#93a078"/><rect x="66" y="16" width="1" height="1" fill="#52634a"/><rect x="67" y="16" width="1" height="1" fill="#93a078"/><rect x="68" y="16" width="5" height="1" fill="#202a24"/><rect x="9" y="17" width="3" height="1" fill="#202a24"/><rect x="12" y="17" width="1" height="1" fill="#d5dab5"/><rect x="13" y="17" width="2" height="1" fill="#202a24"/><rect x="15" y="17" width="1" height="1" fill="#93a078"/><rect x="16" y="17" width="1" height="1" fill="#52634a"/><rect x="17" y="17" width="5" height="1" fill="#93a078"/><rect x="22" y="17" width="9" height="1" fill="#202a24"/><rect x="52" y="17" width="9" height="1" fill="#202a24"/><rect x="61" y="17" width="1" height="1" fill="#93a078"/><rect x="62" y="17" width="1" height="1" fill="#52634a"/><rect x="63" y="17" width="2" height="1" fill="#93a078"/><rect x="65" y="17" width="2" height="1" fill="#52634a"/><rect x="67" y="17" width="1" height="1" fill="#93a078"/><rect x="68" y="17" width="2" height="1" fill="#202a24"/><rect x="70" y="17" width="1" height="1" fill="#d5dab5"/><rect x="71" y="17" width="2" height="1" fill="#202a24"/><rect x="10" y="18" width="5" height="1" fill="#202a24"/><rect x="15" y="18" width="2" height="1" fill="#93a078"/><rect x="17" y="18" width="1" height="1" fill="#52634a"/><rect x="18" y="18" width="6" height="1" fill="#93a078"/><rect x="24" y="18" width="8" height="1" fill="#202a24"/><rect x="52" y="18" width="8" height="1" fill="#202a24"/><rect x="60" y="18" width="4" height="1" fill="#93a078"/><rect x="64" y="18" width="1" height="1" fill="#52634a"/><rect x="65" y="18" width="3" height="1" fill="#93a078"/><rect x="68" y="18" width="5" height="1" fill="#202a24"/><rect x="10" y="19" width="5" height="1" fill="#202a24"/><rect x="15" y="19" width="3" height="1" fill="#93a078"/><rect x="18" y="19" width="1" height="1" fill="#52634a"/><rect x="19" y="19" width="7" height="1" fill="#93a078"/><rect x="26" y="19" width="8" height="1" fill="#202a24"/><rect x="49" y="19" width="9" height="1" fill="#202a24"/><rect x="58" y="19" width="5" height="1" fill="#93a078"/><rect x="63" y="19" width="1" height="1" fill="#52634a"/><rect x="64" y="19" width="3" height="1" fill="#93a078"/><rect x="67" y="19" width="1" height="1" fill="#52634a"/><rect x="68" y="19" width="5" height="1" fill="#202a24"/><rect x="10" y="20" width="5" height="1" fill="#202a24"/><rect x="15" y="20" width="4" height="1" fill="#93a078"/><rect x="19" y="20" width="2" height="1" fill="#52634a"/><rect x="21" y="20" width="5" height="1" fill="#93a078"/><rect x="26" y="20" width="7" height="1" fill="#202a24"/><rect x="34" y="20" width="2" height="1" fill="#202a24"/><rect x="47" y="20" width="2" height="1" fill="#202a24"/><rect x="50" y="20" width="8" height="1" fill="#202a24"/><rect x="58" y="20" width="1" height="1" fill="#93a078"/><rect x="59" y="20" width="1" height="1" fill="#52634a"/><rect x="60" y="20" width="2" height="1" fill="#93a078"/><rect x="62" y="20" width="1" height="1" fill="#52634a"/><rect x="63" y="20" width="5" height="1" fill="#93a078"/><rect x="68" y="20" width="5" height="1" fill="#202a24"/><rect x="10" y="21" width="5" height="1" fill="#202a24"/><rect x="15" y="21" width="6" height="1" fill="#93a078"/><rect x="21" y="21" width="1" height="1" fill="#52634a"/><rect x="22" y="21" width="3" height="1" fill="#93a078"/><rect x="25" y="21" width="1" height="1" fill="#52634a"/><rect x="26" y="21" width="1" height="1" fill="#93a078"/><rect x="27" y="21" width="7" height="1" fill="#202a24"/><rect x="36" y="21" width="1" height="1" fill="#202a24"/><rect x="46" y="21" width="1" height="1" fill="#202a24"/><rect x="50" y="21" width="7" height="1" fill="#202a24"/><rect x="57" y="21" width="4" height="1" fill="#93a078"/><rect x="61" y="21" width="1" height="1" fill="#52634a"/><rect x="62" y="21" width="6" height="1" fill="#93a078"/><rect x="68" y="21" width="4" height="1" fill="#202a24"/><rect x="10" y="22" width="5" height="1" fill="#202a24"/><rect x="15" y="22" width="7" height="1" fill="#93a078"/><rect x="22" y="22" width="1" height="1" fill="#52634a"/><rect x="23" y="22" width="5" height="1" fill="#93a078"/><rect x="28" y="22" width="7" height="1" fill="#202a24"/><rect x="36" y="22" width="1" height="1" fill="#202a24"/><rect x="46" y="22" width="1" height="1" fill="#202a24"/><rect x="49" y="22" width="7" height="1" fill="#202a24"/><rect x="56" y="22" width="4" height="1" fill="#93a078"/><rect x="60" y="22" width="1" height="1" fill="#52634a"/><rect x="61" y="22" width="3" height="1" fill="#93a078"/><rect x="64" y="22" width="1" height="1" fill="#52634a"/><rect x="65" y="22" width="3" height="1" fill="#93a078"/><rect x="68" y="22" width="4" height="1" fill="#202a24"/><rect x="10" y="23" width="5" height="1" fill="#202a24"/><rect x="15" y="23" width="4" height="1" fill="#93a078"/><rect x="19" y="23" width="1" height="1" fill="#52634a"/><rect x="20" y="23" width="3" height="1" fill="#93a078"/><rect x="23" y="23" width="1" height="1" fill="#52634a"/><rect x="24" y="23" width="5" height="1" fill="#93a078"/><rect x="29" y="23" width="6" height="1" fill="#202a24"/><rect x="37" y="23" width="1" height="1" fill="#202a24"/><rect x="45" y="23" width="1" height="1" fill="#202a24"/><rect x="48" y="23" width="8" height="1" fill="#202a24"/><rect x="56" y="23" width="3" height="1" fill="#93a078"/><rect x="59" y="23" width="1" height="1" fill="#52634a"/><rect x="60" y="23" width="7" height="1" fill="#93a078"/><rect x="67" y="23" width="5" height="1" fill="#202a24"/><rect x="10" y="24" width="6" height="1" fill="#202a24"/><rect x="16" y="24" width="8" height="1" fill="#93a078"/><rect x="24" y="24" width="1" height="1" fill="#52634a"/><rect x="25" y="24" width="5" height="1" fill="#93a078"/><rect x="30" y="24" width="6" height="1" fill="#202a24"/><rect x="37" y="24" width="1" height="1" fill="#202a24"/><rect x="45" y="24" width="1" height="1" fill="#202a24"/><rect x="47" y="24" width="7" height="1" fill="#202a24"/><rect x="54" y="24" width="2" height="1" fill="#93a078"/><rect x="56" y="24" width="1" height="1" fill="#202a24"/><rect x="57" y="24" width="1" height="1" fill="#93a078"/><rect x="58" y="24" width="2" height="1" fill="#52634a"/><rect x="60" y="24" width="6" height="1" fill="#93a078"/><rect x="66" y="24" width="6" height="1" fill="#202a24"/><rect x="11" y="25" width="3" height="1" fill="#202a24"/><rect x="14" y="25" width="1" height="1" fill="#d5dab5"/><rect x="15" y="25" width="2" height="1" fill="#202a24"/><rect x="17" y="25" width="8" height="1" fill="#93a078"/><rect x="25" y="25" width="1" height="1" fill="#52634a"/><rect x="26" y="25" width="1" height="1" fill="#93a078"/><rect x="27" y="25" width="2" height="1" fill="#202a24"/><rect x="29" y="25" width="2" height="1" fill="#93a078"/><rect x="31" y="25" width="5" height="1" fill="#202a24"/><rect x="38" y="25" width="1" height="1" fill="#202a24"/><rect x="44" y="25" width="1" height="1" fill="#202a24"/><rect x="47" y="25" width="6" height="1" fill="#202a24"/><rect x="53" y="25" width="4" height="1" fill="#93a078"/><rect x="57" y="25" width="1" height="1" fill="#202a24"/><rect x="58" y="25" width="7" height="1" fill="#93a078"/><rect x="65" y="25" width="6" height="1" fill="#202a24"/><rect x="11" y="26" width="7" height="1" fill="#202a24"/><rect x="18" y="26" width="6" height="1" fill="#93a078"/><rect x="24" y="26" width="3" height="1" fill="#202a24"/><rect x="27" y="26" width="4" height="1" fill="#93a078"/><rect x="31" y="26" width="6" height="1" fill="#202a24"/><rect x="38" y="26" width="1" height="1" fill="#202a24"/><rect x="44" y="26" width="1" height="1" fill="#202a24"/><rect x="46" y="26" width="7" height="1" fill="#202a24"/><rect x="53" y="26" width="1" height="1" fill="#52634a"/><rect x="54" y="26" width="2" height="1" fill="#93a078"/><rect x="56" y="26" width="1" height="1" fill="#52634a"/><rect x="57" y="26" width="1" height="1" fill="#93a078"/><rect x="58" y="26" width="1" height="1" fill="#202a24"/><rect x="59" y="26" width="5" height="1" fill="#93a078"/><rect x="64" y="26" width="4" height="1" fill="#202a24"/><rect x="68" y="26" width="1" height="1" fill="#d5dab5"/><rect x="69" y="26" width="2" height="1" fill="#202a24"/><rect x="12" y="27" width="7" height="1" fill="#202a24"/><rect x="19" y="27" width="3" height="1" fill="#93a078"/><rect x="22" y="27" width="2" height="1" fill="#202a24"/><rect x="24" y="27" width="1" height="1" fill="#93a078"/><rect x="25" y="27" width="1" height="1" fill="#52634a"/><rect x="26" y="27" width="1" height="1" fill="#93a078"/><rect x="27" y="27" width="2" height="1" fill="#52634a"/><rect x="29" y="27" width="3" height="1" fill="#93a078"/><rect x="32" y="27" width="6" height="1" fill="#202a24"/><rect x="39" y="27" width="1" height="1" fill="#202a24"/><rect x="41" y="27" width="1" height="1" fill="#202a24"/><rect x="43" y="27" width="1" height="1" fill="#202a24"/><rect x="45" y="27" width="7" height="1" fill="#202a24"/><rect x="52" y="27" width="3" height="1" fill="#93a078"/><rect x="55" y="27" width="1" height="1" fill="#52634a"/><rect x="56" y="27" width="7" height="1" fill="#93a078"/><rect x="63" y="27" width="7" height="1" fill="#202a24"/><rect x="13" y="28" width="7" height="1" fill="#202a24"/><rect x="20" y="28" width="9" height="1" fill="#93a078"/><rect x="29" y="28" width="1" height="1" fill="#52634a"/><rect x="30" y="28" width="3" height="1" fill="#93a078"/><rect x="33" y="28" width="5" height="1" fill="#202a24"/><rect x="39" y="28" width="5" height="1" fill="#202a24"/><rect x="45" y="28" width="6" height="1" fill="#202a24"/><rect x="51" y="28" width="3" height="1" fill="#93a078"/><rect x="54" y="28" width="1" height="1" fill="#52634a"/><rect x="55" y="28" width="7" height="1" fill="#93a078"/><rect x="62" y="28" width="7" height="1" fill="#202a24"/><rect x="14" y="29" width="7" height="1" fill="#202a24"/><rect x="21" y="29" width="5" height="1" fill="#93a078"/><rect x="26" y="29" width="1" height="1" fill="#52634a"/><rect x="27" y="29" width="3" height="1" fill="#93a078"/><rect x="30" y="29" width="1" height="1" fill="#52634a"/><rect x="31" y="29" width="3" height="1" fill="#93a078"/><rect x="34" y="29" width="16" height="1" fill="#202a24"/><rect x="50" y="29" width="1" height="1" fill="#93a078"/><rect x="51" y="29" width="1" height="1" fill="#52634a"/><rect x="52" y="29" width="1" height="1" fill="#93a078"/><rect x="53" y="29" width="1" height="1" fill="#52634a"/><rect x="54" y="29" width="7" height="1" fill="#93a078"/><rect x="61" y="29" width="2" height="1" fill="#202a24"/><rect x="63" y="29" width="1" height="1" fill="#93a078"/><rect x="64" y="29" width="4" height="1" fill="#202a24"/><rect x="14" y="30" width="5" height="1" fill="#202a24"/><rect x="19" y="30" width="1" height="1" fill="#93a078"/><rect x="20" y="30" width="2" height="1" fill="#202a24"/><rect x="22" y="30" width="9" height="1" fill="#93a078"/><rect x="31" y="30" width="1" height="1" fill="#52634a"/><rect x="32" y="30" width="3" height="1" fill="#93a078"/><rect x="35" y="30" width="5" height="1" fill="#202a24"/><rect x="40" y="30" width="1" height="1" fill="#93a078"/><rect x="41" y="30" width="8" height="1" fill="#202a24"/><rect x="49" y="30" width="1" height="1" fill="#52634a"/><rect x="50" y="30" width="7" height="1" fill="#93a078"/><rect x="57" y="30" width="1" height="1" fill="#52634a"/><rect x="58" y="30" width="2" height="1" fill="#93a078"/><rect x="60" y="30" width="1" height="1" fill="#202a24"/><rect x="61" y="30" width="2" height="1" fill="#93a078"/><rect x="63" y="30" width="5" height="1" fill="#202a24"/><rect x="15" y="31" width="5" height="1" fill="#202a24"/><rect x="20" y="31" width="2" height="1" fill="#93a078"/><rect x="22" y="31" width="1" height="1" fill="#202a24"/><rect x="23" y="31" width="8" height="1" fill="#93a078"/><rect x="31" y="31" width="1" height="1" fill="#52634a"/><rect x="32" y="31" width="1" height="1" fill="#202a24"/><rect x="33" y="31" width="3" height="1" fill="#93a078"/><rect x="36" y="31" width="4" height="1" fill="#202a24"/><rect x="40" y="31" width="1" height="1" fill="#93a078"/><rect x="41" y="31" width="7" height="1" fill="#202a24"/><rect x="48" y="31" width="2" height="1" fill="#93a078"/><rect x="50" y="31" width="1" height="1" fill="#202a24"/><rect x="51" y="31" width="11" height="1" fill="#93a078"/><rect x="62" y="31" width="5" height="1" fill="#202a24"/><rect x="16" y="32" width="2" height="1" fill="#202a24"/><rect x="18" y="32" width="1" height="1" fill="#d5dab5"/><rect x="19" y="32" width="2" height="1" fill="#202a24"/><rect x="21" y="32" width="4" height="1" fill="#93a078"/><rect x="25" y="32" width="15" height="1" fill="#202a24"/><rect x="40" y="32" width="1" height="1" fill="#93a078"/><rect x="41" y="32" width="15" height="1" fill="#202a24"/><rect x="56" y="32" width="4" height="1" fill="#93a078"/><rect x="60" y="32" width="1" height="1" fill="#52634a"/><rect x="61" y="32" width="5" height="1" fill="#202a24"/><rect x="16" y="33" width="6" height="1" fill="#202a24"/><rect x="22" y="33" width="5" height="1" fill="#93a078"/><rect x="27" y="33" width="13" height="1" fill="#202a24"/><rect x="40" y="33" width="1" height="1" fill="#52634a"/><rect x="41" y="33" width="13" height="1" fill="#202a24"/><rect x="54" y="33" width="6" height="1" fill="#93a078"/><rect x="60" y="33" width="3" height="1" fill="#202a24"/><rect x="63" y="33" width="1" height="1" fill="#d5dab5"/><rect x="64" y="33" width="2" height="1" fill="#202a24"/><rect x="17" y="34" width="6" height="1" fill="#202a24"/><rect x="23" y="34" width="2" height="1" fill="#93a078"/><rect x="25" y="34" width="1" height="1" fill="#52634a"/><rect x="26" y="34" width="4" height="1" fill="#93a078"/><rect x="30" y="34" width="10" height="1" fill="#202a24"/><rect x="40" y="34" width="1" height="1" fill="#93a078"/><rect x="41" y="34" width="11" height="1" fill="#202a24"/><rect x="52" y="34" width="6" height="1" fill="#93a078"/><rect x="58" y="34" width="1" height="1" fill="#52634a"/><rect x="59" y="34" width="6" height="1" fill="#202a24"/><rect x="19" y="35" width="21" height="1" fill="#202a24"/><rect x="40" y="35" width="1" height="1" fill="#93a078"/><rect x="41" y="35" width="22" height="1" fill="#202a24"/><rect x="21" y="36" width="19" height="1" fill="#202a24"/><rect x="40" y="36" width="1" height="1" fill="#93a078"/><rect x="41" y="36" width="19" height="1" fill="#202a24"/><rect x="24" y="37" width="16" height="1" fill="#202a24"/><rect x="40" y="37" width="1" height="1" fill="#93a078"/><rect x="41" y="37" width="15" height="1" fill="#202a24"/><rect x="27" y="38" width="13" height="1" fill="#202a24"/><rect x="40" y="38" width="1" height="1" fill="#93a078"/><rect x="41" y="38" width="15" height="1" fill="#202a24"/><rect x="15" y="39" width="25" height="1" fill="#202a24"/><rect x="40" y="39" width="1" height="1" fill="#93a078"/><rect x="41" y="39" width="23" height="1" fill="#202a24"/><rect x="15" y="40" width="25" height="1" fill="#202a24"/><rect x="40" y="40" width="1" height="1" fill="#93a078"/><rect x="41" y="40" width="28" height="1" fill="#202a24"/><rect x="14" y="41" width="26" height="1" fill="#202a24"/><rect x="40" y="41" width="1" height="1" fill="#93a078"/><rect x="41" y="41" width="28" height="1" fill="#202a24"/><rect x="14" y="42" width="20" height="1" fill="#202a24"/><rect x="34" y="42" width="1" height="1" fill="#93a078"/><rect x="35" y="42" width="5" height="1" fill="#202a24"/><rect x="40" y="42" width="1" height="1" fill="#93a078"/><rect x="41" y="42" width="7" height="1" fill="#202a24"/><rect x="48" y="42" width="1" height="1" fill="#93a078"/><rect x="49" y="42" width="20" height="1" fill="#202a24"/><rect x="14" y="43" width="3" height="1" fill="#202a24"/><rect x="17" y="43" width="1" height="1" fill="#d5dab5"/><rect x="18" y="43" width="2" height="1" fill="#202a24"/><rect x="20" y="43" width="3" height="1" fill="#93a078"/><rect x="23" y="43" width="1" height="1" fill="#52634a"/><rect x="24" y="43" width="10" height="1" fill="#93a078"/><rect x="34" y="43" width="6" height="1" fill="#202a24"/><rect x="40" y="43" width="1" height="1" fill="#93a078"/><rect x="41" y="43" width="8" height="1" fill="#202a24"/><rect x="49" y="43" width="1" height="1" fill="#93a078"/><rect x="50" y="43" width="1" height="1" fill="#52634a"/><rect x="51" y="43" width="9" height="1" fill="#93a078"/><rect x="60" y="43" width="1" height="1" fill="#52634a"/><rect x="61" y="43" width="3" height="1" fill="#93a078"/><rect x="64" y="43" width="1" height="1" fill="#52634a"/><rect x="65" y="43" width="4" height="1" fill="#202a24"/><rect x="14" y="44" width="6" height="1" fill="#202a24"/><rect x="20" y="44" width="4" height="1" fill="#93a078"/><rect x="24" y="44" width="1" height="1" fill="#52634a"/><rect x="25" y="44" width="9" height="1" fill="#93a078"/><rect x="34" y="44" width="16" height="1" fill="#202a24"/><rect x="50" y="44" width="9" height="1" fill="#93a078"/><rect x="59" y="44" width="1" height="1" fill="#52634a"/><rect x="60" y="44" width="4" height="1" fill="#93a078"/><rect x="64" y="44" width="3" height="1" fill="#202a24"/><rect x="67" y="44" width="1" height="1" fill="#d5dab5"/><rect x="68" y="44" width="1" height="1" fill="#202a24"/><rect x="13" y="45" width="7" height="1" fill="#202a24"/><rect x="20" y="45" width="5" height="1" fill="#93a078"/><rect x="25" y="45" width="1" height="1" fill="#52634a"/><rect x="26" y="45" width="7" height="1" fill="#93a078"/><rect x="33" y="45" width="17" height="1" fill="#202a24"/><rect x="50" y="45" width="8" height="1" fill="#93a078"/><rect x="58" y="45" width="1" height="1" fill="#52634a"/><rect x="59" y="45" width="2" height="1" fill="#93a078"/><rect x="61" y="45" width="1" height="1" fill="#52634a"/><rect x="62" y="45" width="2" height="1" fill="#93a078"/><rect x="64" y="45" width="6" height="1" fill="#202a24"/><rect x="13" y="46" width="7" height="1" fill="#202a24"/><rect x="20" y="46" width="1" height="1" fill="#52634a"/><rect x="21" y="46" width="5" height="1" fill="#93a078"/><rect x="26" y="46" width="2" height="1" fill="#52634a"/><rect x="28" y="46" width="2" height="1" fill="#93a078"/><rect x="30" y="46" width="1" height="1" fill="#52634a"/><rect x="31" y="46" width="2" height="1" fill="#93a078"/><rect x="33" y="46" width="5" height="1" fill="#202a24"/><rect x="39" y="46" width="12" height="1" fill="#202a24"/><rect x="51" y="46" width="1" height="1" fill="#52634a"/><rect x="52" y="46" width="5" height="1" fill="#93a078"/><rect x="57" y="46" width="1" height="1" fill="#52634a"/><rect x="58" y="46" width="6" height="1" fill="#93a078"/><rect x="64" y="46" width="6" height="1" fill="#202a24"/><rect x="13" y="47" width="7" height="1" fill="#202a24"/><rect x="20" y="47" width="8" height="1" fill="#93a078"/><rect x="28" y="47" width="1" height="1" fill="#52634a"/><rect x="29" y="47" width="3" height="1" fill="#93a078"/><rect x="32" y="47" width="5" height="1" fill="#202a24"/><rect x="39" y="47" width="12" height="1" fill="#202a24"/><rect x="51" y="47" width="2" height="1" fill="#93a078"/><rect x="53" y="47" width="1" height="1" fill="#52634a"/><rect x="54" y="47" width="2" height="1" fill="#93a078"/><rect x="56" y="47" width="1" height="1" fill="#52634a"/><rect x="57" y="47" width="7" height="1" fill="#93a078"/><rect x="64" y="47" width="6" height="1" fill="#202a24"/><rect x="14" y="48" width="4" height="1" fill="#202a24"/><rect x="18" y="48" width="1" height="1" fill="#d5dab5"/><rect x="19" y="48" width="1" height="1" fill="#202a24"/><rect x="20" y="48" width="4" height="1" fill="#93a078"/><rect x="24" y="48" width="1" height="1" fill="#52634a"/><rect x="25" y="48" width="4" height="1" fill="#93a078"/><rect x="29" y="48" width="1" height="1" fill="#52634a"/><rect x="30" y="48" width="2" height="1" fill="#93a078"/><rect x="32" y="48" width="5" height="1" fill="#202a24"/><rect x="39" y="48" width="5" height="1" fill="#202a24"/><rect x="45" y="48" width="7" height="1" fill="#202a24"/><rect x="52" y="48" width="3" height="1" fill="#93a078"/><rect x="55" y="48" width="1" height="1" fill="#52634a"/><rect x="56" y="48" width="8" height="1" fill="#93a078"/><rect x="64" y="48" width="6" height="1" fill="#202a24"/><rect x="14" y="49" width="6" height="1" fill="#202a24"/><rect x="20" y="49" width="10" height="1" fill="#93a078"/><rect x="30" y="49" width="1" height="1" fill="#52634a"/><rect x="31" y="49" width="5" height="1" fill="#202a24"/><rect x="39" y="49" width="5" height="1" fill="#202a24"/><rect x="45" y="49" width="7" height="1" fill="#202a24"/><rect x="52" y="49" width="1" height="1" fill="#52634a"/><rect x="53" y="49" width="1" height="1" fill="#93a078"/><rect x="54" y="49" width="1" height="1" fill="#52634a"/><rect x="55" y="49" width="1" height="1" fill="#93a078"/><rect x="56" y="49" width="1" height="1" fill="#52634a"/><rect x="57" y="49" width="7" height="1" fill="#93a078"/><rect x="64" y="49" width="6" height="1" fill="#202a24"/><rect x="15" y="50" width="5" height="1" fill="#202a24"/><rect x="20" y="50" width="11" height="1" fill="#93a078"/><rect x="31" y="50" width="4" height="1" fill="#202a24"/><rect x="40" y="50" width="3" height="1" fill="#202a24"/><rect x="46" y="50" width="7" height="1" fill="#202a24"/><rect x="53" y="50" width="1" height="1" fill="#52634a"/><rect x="54" y="50" width="10" height="1" fill="#93a078"/><rect x="64" y="50" width="2" height="1" fill="#202a24"/><rect x="66" y="50" width="1" height="1" fill="#d5dab5"/><rect x="67" y="50" width="2" height="1" fill="#202a24"/><rect x="16" y="51" width="6" height="1" fill="#202a24"/><rect x="22" y="51" width="8" height="1" fill="#93a078"/><rect x="30" y="51" width="4" height="1" fill="#202a24"/><rect x="40" y="51" width="3" height="1" fill="#202a24"/><rect x="47" y="51" width="6" height="1" fill="#202a24"/><rect x="53" y="51" width="4" height="1" fill="#93a078"/><rect x="57" y="51" width="1" height="1" fill="#52634a"/><rect x="58" y="51" width="5" height="1" fill="#93a078"/><rect x="63" y="51" width="1" height="1" fill="#52634a"/><rect x="64" y="51" width="4" height="1" fill="#202a24"/><rect x="16" y="52" width="8" height="1" fill="#202a24"/><rect x="24" y="52" width="6" height="1" fill="#93a078"/><rect x="30" y="52" width="4" height="1" fill="#202a24"/><rect x="40" y="52" width="3" height="1" fill="#202a24"/><rect x="48" y="52" width="6" height="1" fill="#202a24"/><rect x="54" y="52" width="3" height="1" fill="#93a078"/><rect x="57" y="52" width="1" height="1" fill="#52634a"/><rect x="58" y="52" width="1" height="1" fill="#93a078"/><rect x="59" y="52" width="1" height="1" fill="#52634a"/><rect x="60" y="52" width="2" height="1" fill="#93a078"/><rect x="62" y="52" width="5" height="1" fill="#202a24"/><rect x="17" y="53" width="5" height="1" fill="#202a24"/><rect x="22" y="53" width="1" height="1" fill="#d5dab5"/><rect x="23" y="53" width="3" height="1" fill="#202a24"/><rect x="26" y="53" width="3" height="1" fill="#93a078"/><rect x="29" y="53" width="4" height="1" fill="#202a24"/><rect x="48" y="53" width="6" height="1" fill="#202a24"/><rect x="54" y="53" width="6" height="1" fill="#93a078"/><rect x="60" y="53" width="6" height="1" fill="#202a24"/><rect x="18" y="54" width="14" height="1" fill="#202a24"/><rect x="49" y="54" width="6" height="1" fill="#202a24"/><rect x="55" y="54" width="3" height="1" fill="#93a078"/><rect x="58" y="54" width="3" height="1" fill="#202a24"/><rect x="61" y="54" width="1" height="1" fill="#d5dab5"/><rect x="62" y="54" width="4" height="1" fill="#202a24"/><rect x="18" y="55" width="13" height="1" fill="#202a24"/><rect x="50" y="55" width="15" height="1" fill="#202a24"/><rect x="19" y="56" width="9" height="1" fill="#202a24"/><rect x="28" y="56" width="1" height="1" fill="#d5dab5"/><rect x="29" y="56" width="1" height="1" fill="#202a24"/><rect x="51" y="56" width="13" height="1" fill="#202a24"/><rect x="21" y="57" width="9" height="1" fill="#202a24"/><rect x="52" y="57" width="2" height="1" fill="#202a24"/><rect x="54" y="57" width="1" height="1" fill="#d5dab5"/><rect x="55" y="57" width="8" height="1" fill="#202a24"/><rect x="23" y="58" width="6" height="1" fill="#202a24"/><rect x="52" y="58" width="9" height="1" fill="#202a24"/><rect x="26" y="59" width="2" height="1" fill="#202a24"/><rect x="53" y="59" width="6" height="1" fill="#202a24"/><rect x="54" y="60" width="2" height="1" fill="#202a24"/></svg>
