<svg xmlns="http://www.w3.org/2000/svg" width="80" height="72" viewBox="0 0 80 72" role="img" aria-label="Bellowgout: original pixel field portrait inspired by American bullfrog" shape-rendering="crispEdges"><title>Bellowgout: original pixel field portrait inspired by American bullfrog</title><rect x="57" y="27" width="1" height="1" fill="#202a24"/><rect x="55" y="28" width="2" height="1" fill="#202a24"/><rect x="57" y="28" width="1" height="1" fill="#93a078"/><rect x="58" y="28" width="2" height="1" fill="#202a24"/><rect x="42" y="29" width="13" height="1" fill="#202a24"/><rect x="55" y="29" width="5" height="1" fill="#93a078"/><rect x="60" y="29" width="1" height="1" fill="#202a24"/><rect x="38" y="30" width="4" height="1" fill="#202a24"/><rect x="42" y="30" width="1" height="1" fill="#52634a"/><rect x="43" y="30" width="1" height="1" fill="#93a078"/><rect x="44" y="30" width="10" height="1" fill="#52634a"/><rect x="54" y="30" width="1" height="1" fill="#202a24"/><rect x="55" y="30" width="2" height="1" fill="#93a078"/><rect x="57" y="30" width="1" height="1" fill="#d5dab5"/><rect x="58" y="30" width="2" height="1" fill="#93a078"/><rect x="60" y="30" width="1" height="1" fill="#202a24"/><rect x="34" y="31" width="4" height="1" fill="#202a24"/><rect x="38" y="31" width="3" height="1" fill="#52634a"/><rect x="41" y="31" width="2" height="1" fill="#93a078"/><rect x="43" y="31" width="10" height="1" fill="#52634a"/><rect x="53" y="31" width="7" height="1" fill="#202a24"/><rect x="60" y="31" width="1" height="1" fill="#93a078"/><rect x="61" y="31" width="1" height="1" fill="#202a24"/><rect x="31" y="32" width="3" height="1" fill="#202a24"/><rect x="34" y="32" width="20" height="1" fill="#52634a"/><rect x="54" y="32" width="1" height="1" fill="#202a24"/><rect x="55" y="32" width="5" height="1" fill="#93a078"/><rect x="60" y="32" width="2" height="1" fill="#202a24"/><rect x="30" y="33" width="1" height="1" fill="#202a24"/><rect x="31" y="33" width="8" height="1" fill="#52634a"/><rect x="39" y="33" width="2" height="1" fill="#93a078"/><rect x="41" y="33" width="1" height="1" fill="#52634a"/><rect x="42" y="33" width="3" height="1" fill="#93a078"/><rect x="45" y="33" width="3" height="1" fill="#52634a"/><rect x="48" y="33" width="1" height="1" fill="#202a24"/><rect x="49" y="33" width="5" height="1" fill="#52634a"/><rect x="54" y="33" width="1" height="1" fill="#202a24"/><rect x="55" y="33" width="5" height="1" fill="#93a078"/><rect x="60" y="33" width="1" height="1" fill="#202a24"/><rect x="61" y="33" width="1" height="1" fill="#52634a"/><rect x="62" y="33" width="1" height="1" fill="#202a24"/><rect x="30" y="34" width="1" height="1" fill="#202a24"/><rect x="31" y="34" width="3" height="1" fill="#52634a"/><rect x="34" y="34" width="6" height="1" fill="#93a078"/><rect x="40" y="34" width="6" height="1" fill="#52634a"/><rect x="46" y="34" width="2" height="1" fill="#202a24"/><rect x="48" y="34" width="1" height="1" fill="#52634a"/><rect x="49" y="34" width="2" height="1" fill="#202a24"/><rect x="51" y="34" width="2" height="1" fill="#52634a"/><rect x="53" y="34" width="1" height="1" fill="#93a078"/><rect x="54" y="34" width="1" height="1" fill="#52634a"/><rect x="55" y="34" width="2" height="1" fill="#202a24"/><rect x="57" y="34" width="1" height="1" fill="#93a078"/><rect x="58" y="34" width="2" height="1" fill="#202a24"/><rect x="60" y="34" width="3" height="1" fill="#52634a"/><rect x="63" y="34" width="1" height="1" fill="#202a24"/><rect x="29" y="35" width="1" height="1" fill="#202a24"/><rect x="30" y="35" width="2" height="1" fill="#52634a"/><rect x="32" y="35" width="2" height="1" fill="#93a078"/><rect x="34" y="35" width="2" height="1" fill="#52634a"/><rect x="36" y="35" width="1" height="1" fill="#93a078"/><rect x="37" y="35" width="2" height="1" fill="#52634a"/><rect x="39" y="35" width="2" height="1" fill="#93a078"/><rect x="41" y="35" width="4" height="1" fill="#52634a"/><rect x="45" y="35" width="1" height="1" fill="#202a24"/><rect x="46" y="35" width="1" height="1" fill="#52634a"/><rect x="47" y="35" width="1" height="1" fill="#93a078"/><rect x="48" y="35" width="1" height="1" fill="#202a24"/><rect x="49" y="35" width="2" height="1" fill="#52634a"/><rect x="51" y="35" width="1" height="1" fill="#202a24"/><rect x="52" y="35" width="5" height="1" fill="#52634a"/><rect x="57" y="35" width="1" height="1" fill="#202a24"/><rect x="58" y="35" width="2" height="1" fill="#52634a"/><rect x="60" y="35" width="2" height="1" fill="#93a078"/><rect x="62" y="35" width="1" height="1" fill="#52634a"/><rect x="63" y="35" width="1" height="1" fill="#93a078"/><rect x="64" y="35" width="1" height="1" fill="#202a24"/><rect x="28" y="36" width="1" height="1" fill="#202a24"/><rect x="29" y="36" width="1" height="1" fill="#52634a"/><rect x="30" y="36" width="2" height="1" fill="#93a078"/><rect x="32" y="36" width="12" height="1" fill="#52634a"/><rect x="44" y="36" width="1" height="1" fill="#93a078"/><rect x="45" y="36" width="1" height="1" fill="#202a24"/><rect x="46" y="36" width="1" height="1" fill="#93a078"/><rect x="47" y="36" width="1" height="1" fill="#202a24"/><rect x="48" y="36" width="1" height="1" fill="#93a078"/><rect x="49" y="36" width="1" height="1" fill="#202a24"/><rect x="50" y="36" width="1" height="1" fill="#52634a"/><rect x="51" y="36" width="1" height="1" fill="#202a24"/><rect x="52" y="36" width="13" height="1" fill="#52634a"/><rect x="65" y="36" width="2" height="1" fill="#202a24"/><rect x="28" y="37" width="2" height="1" fill="#93a078"/><rect x="30" y="37" width="3" height="1" fill="#52634a"/><rect x="33" y="37" width="1" height="1" fill="#93a078"/><rect x="34" y="37" width="10" height="1" fill="#52634a"/><rect x="44" y="37" width="1" height="1" fill="#202a24"/><rect x="45" y="37" width="1" height="1" fill="#52634a"/><rect x="46" y="37" width="1" height="1" fill="#202a24"/><rect x="47" y="37" width="3" height="1" fill="#93a078"/><rect x="50" y="37" width="1" height="1" fill="#202a24"/><rect x="51" y="37" width="1" height="1" fill="#52634a"/><rect x="52" y="37" width="1" height="1" fill="#202a24"/><rect x="53" y="37" width="4" height="1" fill="#52634a"/><rect x="57" y="37" width="1" height="1" fill="#93a078"/><rect x="58" y="37" width="8" height="1" fill="#52634a"/><rect x="66" y="37" width="2" height="1" fill="#202a24"/><rect x="27" y="38" width="1" height="1" fill="#93a078"/><rect x="28" y="38" width="15" height="1" fill="#52634a"/><rect x="43" y="38" width="1" height="1" fill="#93a078"/><rect x="44" y="38" width="1" height="1" fill="#52634a"/><rect x="45" y="38" width="1" height="1" fill="#202a24"/><rect x="46" y="38" width="1" height="1" fill="#52634a"/><rect x="47" y="38" width="1" height="1" fill="#202a24"/><rect x="48" y="38" width="1" height="1" fill="#93a078"/><rect x="49" y="38" width="1" height="1" fill="#202a24"/><rect x="50" y="38" width="1" height="1" fill="#52634a"/><rect x="51" y="38" width="1" height="1" fill="#202a24"/><rect x="52" y="38" width="11" height="1" fill="#52634a"/><rect x="63" y="38" width="2" height="1" fill="#93a078"/><rect x="65" y="38" width="3" height="1" fill="#52634a"/><rect x="68" y="38" width="1" height="1" fill="#202a24"/><rect x="26" y="39" width="1" height="1" fill="#202a24"/><rect x="27" y="39" width="10" height="1" fill="#52634a"/><rect x="37" y="39" width="1" height="1" fill="#93a078"/><rect x="38" y="39" width="7" height="1" fill="#52634a"/><rect x="45" y="39" width="1" height="1" fill="#202a24"/><rect x="46" y="39" width="2" height="1" fill="#52634a"/><rect x="48" y="39" width="1" height="1" fill="#202a24"/><rect x="49" y="39" width="2" height="1" fill="#52634a"/><rect x="51" y="39" width="1" height="1" fill="#202a24"/><rect x="52" y="39" width="17" height="1" fill="#52634a"/><rect x="69" y="39" width="1" height="1" fill="#202a24"/><rect x="20" y="40" width="2" height="1" fill="#202a24"/><rect x="25" y="40" width="1" height="1" fill="#202a24"/><rect x="26" y="40" width="2" height="1" fill="#52634a"/><rect x="28" y="40" width="1" height="1" fill="#93a078"/><rect x="29" y="40" width="17" height="1" fill="#52634a"/><rect x="46" y="40" width="2" height="1" fill="#202a24"/><rect x="48" y="40" width="1" height="1" fill="#52634a"/><rect x="49" y="40" width="2" height="1" fill="#202a24"/><rect x="51" y="40" width="8" height="1" fill="#52634a"/><rect x="59" y="40" width="1" height="1" fill="#93a078"/><rect x="60" y="40" width="2" height="1" fill="#52634a"/><rect x="62" y="40" width="1" height="1" fill="#93a078"/><rect x="63" y="40" width="6" height="1" fill="#52634a"/><rect x="69" y="40" width="1" height="1" fill="#202a24"/><rect x="18" y="41" width="2" height="1" fill="#202a24"/><rect x="20" y="41" width="2" height="1" fill="#52634a"/><rect x="22" y="41" width="4" height="1" fill="#202a24"/><rect x="26" y="41" width="4" height="1" fill="#52634a"/><rect x="30" y="41" width="1" height="1" fill="#93a078"/><rect x="31" y="41" width="2" height="1" fill="#52634a"/><rect x="33" y="41" width="1" height="1" fill="#93a078"/><rect x="34" y="41" width="7" height="1" fill="#52634a"/><rect x="41" y="41" width="1" height="1" fill="#93a078"/><rect x="42" y="41" width="1" height="1" fill="#52634a"/><rect x="43" y="41" width="1" height="1" fill="#93a078"/><rect x="44" y="41" width="1" height="1" fill="#52634a"/><rect x="45" y="41" width="1" height="1" fill="#93a078"/><rect x="46" y="41" width="2" height="1" fill="#52634a"/><rect x="48" y="41" width="1" height="1" fill="#202a24"/><rect x="49" y="41" width="15" height="1" fill="#52634a"/><rect x="64" y="41" width="4" height="1" fill="#202a24"/><rect x="68" y="41" width="1" height="1" fill="#52634a"/><rect x="69" y="41" width="1" height="1" fill="#93a078"/><rect x="70" y="41" width="1" height="1" fill="#202a24"/><rect x="17" y="42" width="1" height="1" fill="#202a24"/><rect x="18" y="42" width="6" height="1" fill="#52634a"/><rect x="24" y="42" width="1" height="1" fill="#202a24"/><rect x="25" y="42" width="8" height="1" fill="#52634a"/><rect x="33" y="42" width="1" height="1" fill="#93a078"/><rect x="34" y="42" width="7" height="1" fill="#52634a"/><rect x="41" y="42" width="1" height="1" fill="#93a078"/><rect x="42" y="42" width="11" height="1" fill="#52634a"/><rect x="53" y="42" width="1" height="1" fill="#93a078"/><rect x="54" y="42" width="4" height="1" fill="#52634a"/><rect x="58" y="42" width="6" height="1" fill="#202a24"/><rect x="64" y="42" width="6" height="1" fill="#52634a"/><rect x="70" y="42" width="1" height="1" fill="#202a24"/><rect x="16" y="43" width="1" height="1" fill="#202a24"/><rect x="17" y="43" width="7" height="1" fill="#52634a"/><rect x="24" y="43" width="1" height="1" fill="#202a24"/><rect x="25" y="43" width="24" height="1" fill="#52634a"/><rect x="49" y="43" width="1" height="1" fill="#202a24"/><rect x="50" y="43" width="3" height="1" fill="#52634a"/><rect x="53" y="43" width="1" height="1" fill="#93a078"/><rect x="54" y="43" width="1" height="1" fill="#52634a"/><rect x="55" y="43" width="11" height="1" fill="#202a24"/><rect x="66" y="43" width="3" height="1" fill="#52634a"/><rect x="69" y="43" width="2" height="1" fill="#202a24"/><rect x="14" y="44" width="2" height="1" fill="#202a24"/><rect x="16" y="44" width="3" height="1" fill="#52634a"/><rect x="19" y="44" width="10" height="1" fill="#202a24"/><rect x="29" y="44" width="19" height="1" fill="#52634a"/><rect x="48" y="44" width="1" height="1" fill="#202a24"/><rect x="49" y="44" width="1" height="1" fill="#93a078"/><rect x="50" y="44" width="8" height="1" fill="#202a24"/><rect x="58" y="44" width="6" height="1" fill="#93a078"/><rect x="64" y="44" width="1" height="1" fill="#202a24"/><rect x="65" y="44" width="2" height="1" fill="#52634a"/><rect x="67" y="44" width="2" height="1" fill="#202a24"/><rect x="13" y="45" width="1" height="1" fill="#202a24"/><rect x="14" y="45" width="4" height="1" fill="#52634a"/><rect x="18" y="45" width="1" height="1" fill="#202a24"/><rect x="19" y="45" width="1" height="1" fill="#93a078"/><rect x="20" y="45" width="1" height="1" fill="#52634a"/><rect x="21" y="45" width="5" height="1" fill="#93a078"/><rect x="26" y="45" width="2" height="1" fill="#202a24"/><rect x="28" y="45" width="2" height="1" fill="#52634a"/><rect x="30" y="45" width="1" height="1" fill="#93a078"/><rect x="31" y="45" width="4" height="1" fill="#52634a"/><rect x="35" y="45" width="1" height="1" fill="#93a078"/><rect x="36" y="45" width="9" height="1" fill="#52634a"/><rect x="45" y="45" width="2" height="1" fill="#93a078"/><rect x="47" y="45" width="1" height="1" fill="#52634a"/><rect x="48" y="45" width="1" height="1" fill="#202a24"/><rect x="49" y="45" width="3" height="1" fill="#93a078"/><rect x="52" y="45" width="2" height="1" fill="#202a24"/><rect x="54" y="45" width="10" height="1" fill="#93a078"/><rect x="64" y="45" width="3" height="1" fill="#202a24"/><rect x="13" y="46" width="1" height="1" fill="#202a24"/><rect x="14" y="46" width="1" height="1" fill="#93a078"/><rect x="15" y="46" width="3" height="1" fill="#52634a"/><rect x="18" y="46" width="1" height="1" fill="#202a24"/><rect x="19" y="46" width="5" height="1" fill="#93a078"/><rect x="24" y="46" width="2" height="1" fill="#202a24"/><rect x="26" y="46" width="17" height="1" fill="#52634a"/><rect x="43" y="46" width="1" height="1" fill="#93a078"/><rect x="44" y="46" width="2" height="1" fill="#52634a"/><rect x="46" y="46" width="1" height="1" fill="#93a078"/><rect x="47" y="46" width="1" height="1" fill="#202a24"/><rect x="48" y="46" width="2" height="1" fill="#93a078"/><rect x="50" y="46" width="1" height="1" fill="#52634a"/><rect x="51" y="46" width="2" height="1" fill="#93a078"/><rect x="53" y="46" width="1" height="1" fill="#202a24"/><rect x="54" y="46" width="9" height="1" fill="#93a078"/><rect x="63" y="46" width="2" height="1" fill="#202a24"/><rect x="12" y="47" width="1" height="1" fill="#202a24"/><rect x="13" y="47" width="4" height="1" fill="#52634a"/><rect x="17" y="47" width="1" height="1" fill="#202a24"/><rect x="18" y="47" width="3" height="1" fill="#93a078"/><rect x="21" y="47" width="1" height="1" fill="#52634a"/><rect x="22" y="47" width="2" height="1" fill="#202a24"/><rect x="24" y="47" width="1" height="1" fill="#52634a"/><rect x="25" y="47" width="1" height="1" fill="#202a24"/><rect x="26" y="47" width="11" height="1" fill="#52634a"/><rect x="37" y="47" width="1" height="1" fill="#93a078"/><rect x="38" y="47" width="2" height="1" fill="#52634a"/><rect x="40" y="47" width="2" height="1" fill="#93a078"/><rect x="42" y="47" width="4" height="1" fill="#52634a"/><rect x="46" y="47" width="1" height="1" fill="#202a24"/><rect x="47" y="47" width="5" height="1" fill="#93a078"/><rect x="52" y="47" width="1" height="1" fill="#202a24"/><rect x="53" y="47" width="10" height="1" fill="#93a078"/><rect x="63" y="47" width="1" height="1" fill="#202a24"/><rect x="12" y="48" width="1" height="1" fill="#202a24"/><rect x="13" y="48" width="4" height="1" fill="#52634a"/><rect x="17" y="48" width="1" height="1" fill="#202a24"/><rect x="18" y="48" width="2" height="1" fill="#93a078"/><rect x="20" y="48" width="1" height="1" fill="#202a24"/><rect x="21" y="48" width="1" height="1" fill="#52634a"/><rect x="22" y="48" width="1" height="1" fill="#93a078"/><rect x="23" y="48" width="12" height="1" fill="#52634a"/><rect x="35" y="48" width="1" height="1" fill="#93a078"/><rect x="36" y="48" width="10" height="1" fill="#52634a"/><rect x="46" y="48" width="1" height="1" fill="#202a24"/><rect x="47" y="48" width="5" height="1" fill="#93a078"/><rect x="52" y="48" width="1" height="1" fill="#202a24"/><rect x="53" y="48" width="1" height="1" fill="#52634a"/><rect x="54" y="48" width="8" height="1" fill="#93a078"/><rect x="62" y="48" width="1" height="1" fill="#202a24"/><rect x="12" y="49" width="1" height="1" fill="#202a24"/><rect x="13" y="49" width="3" height="1" fill="#52634a"/><rect x="16" y="49" width="4" height="1" fill="#202a24"/><rect x="20" y="49" width="4" height="1" fill="#52634a"/><rect x="24" y="49" width="1" height="1" fill="#93a078"/><rect x="25" y="49" width="1" height="1" fill="#52634a"/><rect x="26" y="49" width="2" height="1" fill="#202a24"/><rect x="28" y="49" width="4" height="1" fill="#52634a"/><rect x="32" y="49" width="1" height="1" fill="#93a078"/><rect x="33" y="49" width="2" height="1" fill="#202a24"/><rect x="35" y="49" width="1" height="1" fill="#52634a"/><rect x="36" y="49" width="2" height="1" fill="#93a078"/><rect x="38" y="49" width="7" height="1" fill="#52634a"/><rect x="45" y="49" width="1" height="1" fill="#202a24"/><rect x="46" y="49" width="2" height="1" fill="#93a078"/><rect x="48" y="49" width="1" height="1" fill="#52634a"/><rect x="49" y="49" width="2" height="1" fill="#93a078"/><rect x="51" y="49" width="1" height="1" fill="#202a24"/><rect x="52" y="49" width="10" height="1" fill="#93a078"/><rect x="62" y="49" width="1" height="1" fill="#202a24"/><rect x="67" y="49" width="2" height="1" fill="#93a078"/><rect x="12" y="50" width="1" height="1" fill="#202a24"/><rect x="13" y="50" width="3" height="1" fill="#52634a"/><rect x="16" y="50" width="4" height="1" fill="#202a24"/><rect x="20" y="50" width="8" height="1" fill="#52634a"/><rect x="28" y="50" width="5" height="1" fill="#202a24"/><rect x="33" y="50" width="1" height="1" fill="#93a078"/><rect x="34" y="50" width="1" height="1" fill="#202a24"/><rect x="35" y="50" width="10" height="1" fill="#52634a"/><rect x="45" y="50" width="1" height="1" fill="#202a24"/><rect x="46" y="50" width="2" height="1" fill="#93a078"/><rect x="48" y="50" width="1" height="1" fill="#52634a"/><rect x="49" y="50" width="2" height="1" fill="#93a078"/><rect x="51" y="50" width="1" height="1" fill="#202a24"/><rect x="52" y="50" width="9" height="1" fill="#93a078"/><rect x="61" y="50" width="1" height="1" fill="#202a24"/><rect x="66" y="50" width="1" height="1" fill="#93a078"/><rect x="69" y="50" width="2" height="1" fill="#93a078"/><rect x="11" y="51" width="1" height="1" fill="#202a24"/><rect x="12" y="51" width="2" height="1" fill="#52634a"/><rect x="14" y="51" width="2" height="1" fill="#202a24"/><rect x="16" y="51" width="2" height="1" fill="#93a078"/><rect x="18" y="51" width="1" height="1" fill="#52634a"/><rect x="19" y="51" width="1" height="1" fill="#93a078"/><rect x="20" y="51" width="3" height="1" fill="#202a24"/><rect x="23" y="51" width="3" height="1" fill="#52634a"/><rect x="26" y="51" width="3" height="1" fill="#202a24"/><rect x="29" y="51" width="2" height="1" fill="#93a078"/><rect x="31" y="51" width="1" height="1" fill="#52634a"/><rect x="32" y="51" width="3" height="1" fill="#93a078"/><rect x="35" y="51" width="1" height="1" fill="#202a24"/><rect x="36" y="51" width="9" height="1" fill="#52634a"/><rect x="45" y="51" width="1" height="1" fill="#202a24"/><rect x="46" y="51" width="3" height="1" fill="#93a078"/><rect x="49" y="51" width="1" height="1" fill="#52634a"/><rect x="50" y="51" width="3" height="1" fill="#202a24"/><rect x="53" y="51" width="5" height="1" fill="#93a078"/><rect x="58" y="51" width="4" height="1" fill="#202a24"/><rect x="65" y="51" width="1" height="1" fill="#93a078"/><rect x="11" y="52" width="1" height="1" fill="#202a24"/><rect x="12" y="52" width="1" height="1" fill="#52634a"/><rect x="13" y="52" width="1" height="1" fill="#202a24"/><rect x="14" y="52" width="3" height="1" fill="#93a078"/><rect x="17" y="52" width="1" height="1" fill="#52634a"/><rect x="18" y="52" width="5" height="1" fill="#93a078"/><rect x="23" y="52" width="3" height="1" fill="#202a24"/><rect x="26" y="52" width="2" height="1" fill="#93a078"/><rect x="28" y="52" width="1" height="1" fill="#52634a"/><rect x="29" y="52" width="6" height="1" fill="#93a078"/><rect x="35" y="52" width="1" height="1" fill="#202a24"/><rect x="36" y="52" width="2" height="1" fill="#52634a"/><rect x="38" y="52" width="1" height="1" fill="#93a078"/><rect x="39" y="52" width="1" height="1" fill="#52634a"/><rect x="40" y="52" width="6" height="1" fill="#202a24"/><rect x="46" y="52" width="4" height="1" fill="#93a078"/><rect x="50" y="52" width="1" height="1" fill="#202a24"/><rect x="51" y="52" width="2" height="1" fill="#52634a"/><rect x="53" y="52" width="5" height="1" fill="#202a24"/><rect x="11" y="53" width="1" height="1" fill="#202a24"/><rect x="12" y="53" width="1" height="1" fill="#52634a"/><rect x="13" y="53" width="1" height="1" fill="#202a24"/><rect x="14" y="53" width="8" height="1" fill="#93a078"/><rect x="22" y="53" width="1" height="1" fill="#52634a"/><rect x="23" y="53" width="1" height="1" fill="#93a078"/><rect x="24" y="53" width="1" height="1" fill="#52634a"/><rect x="25" y="53" width="4" height="1" fill="#93a078"/><rect x="29" y="53" width="1" height="1" fill="#52634a"/><rect x="30" y="53" width="6" height="1" fill="#93a078"/><rect x="36" y="53" width="4" height="1" fill="#202a24"/><rect x="45" y="53" width="1" height="1" fill="#202a24"/><rect x="46" y="53" width="3" height="1" fill="#93a078"/><rect x="49" y="53" width="1" height="1" fill="#202a24"/><rect x="50" y="53" width="4" height="1" fill="#52634a"/><rect x="54" y="53" width="1" height="1" fill="#202a24"/><rect x="12" y="54" width="1" height="1" fill="#202a24"/><rect x="13" y="54" width="1" height="1" fill="#52634a"/><rect x="14" y="54" width="1" height="1" fill="#202a24"/><rect x="15" y="54" width="20" height="1" fill="#93a078"/><rect x="35" y="54" width="2" height="1" fill="#202a24"/><rect x="45" y="54" width="1" height="1" fill="#202a24"/><rect x="46" y="54" width="3" height="1" fill="#93a078"/><rect x="49" y="54" width="1" height="1" fill="#202a24"/><rect x="50" y="54" width="3" height="1" fill="#52634a"/><rect x="53" y="54" width="1" height="1" fill="#93a078"/><rect x="54" y="54" width="1" height="1" fill="#52634a"/><rect x="55" y="54" width="1" height="1" fill="#202a24"/><rect x="13" y="55" width="2" height="1" fill="#202a24"/><rect x="15" y="55" width="9" height="1" fill="#93a078"/><rect x="24" y="55" width="1" height="1" fill="#52634a"/><rect x="25" y="55" width="8" height="1" fill="#93a078"/><rect x="33" y="55" width="2" height="1" fill="#202a24"/><rect x="45" y="55" width="1" height="1" fill="#202a24"/><rect x="46" y="55" width="4" height="1" fill="#93a078"/><rect x="50" y="55" width="1" height="1" fill="#202a24"/><rect x="51" y="55" width="4" height="1" fill="#52634a"/><rect x="55" y="55" width="1" height="1" fill="#202a24"/><rect x="14" y="56" width="4" height="1" fill="#202a24"/><rect x="18" y="56" width="12" height="1" fill="#93a078"/><rect x="30" y="56" width="4" height="1" fill="#202a24"/><rect x="45" y="56" width="1" height="1" fill="#202a24"/><rect x="46" y="56" width="1" height="1" fill="#93a078"/><rect x="47" y="56" width="1" height="1" fill="#52634a"/><rect x="48" y="56" width="2" height="1" fill="#93a078"/><rect x="50" y="56" width="1" height="1" fill="#202a24"/><rect x="51" y="56" width="5" height="1" fill="#52634a"/><rect x="56" y="56" width="3" height="1" fill="#202a24"/><rect x="16" y="57" width="1" height="1" fill="#202a24"/><rect x="17" y="57" width="1" height="1" fill="#52634a"/><rect x="18" y="57" width="6" height="1" fill="#202a24"/><rect x="24" y="57" width="1" height="1" fill="#93a078"/><rect x="25" y="57" width="1" height="1" fill="#52634a"/><rect x="26" y="57" width="2" height="1" fill="#93a078"/><rect x="28" y="57" width="5" height="1" fill="#202a24"/><rect x="45" y="57" width="1" height="1" fill="#202a24"/><rect x="46" y="57" width="2" height="1" fill="#93a078"/><rect x="48" y="57" width="1" height="1" fill="#52634a"/><rect x="49" y="57" width="2" height="1" fill="#93a078"/><rect x="51" y="57" width="1" height="1" fill="#202a24"/><rect x="52" y="57" width="2" height="1" fill="#52634a"/><rect x="54" y="57" width="1" height="1" fill="#93a078"/><rect x="55" y="57" width="4" height="1" fill="#52634a"/><rect x="59" y="57" width="4" height="1" fill="#202a24"/><rect x="17" y="58" width="1" height="1" fill="#202a24"/><rect x="18" y="58" width="1" height="1" fill="#93a078"/><rect x="19" y="58" width="3" height="1" fill="#52634a"/><rect x="22" y="58" width="7" height="1" fill="#202a24"/><rect x="45" y="58" width="1" height="1" fill="#202a24"/><rect x="46" y="58" width="5" height="1" fill="#93a078"/><rect x="51" y="58" width="1" height="1" fill="#202a24"/><rect x="52" y="58" width="11" height="1" fill="#52634a"/><rect x="63" y="58" width="3" height="1" fill="#202a24"/><rect x="18" y="59" width="4" height="1" fill="#202a24"/><rect x="46" y="59" width="1" height="1" fill="#202a24"/><rect x="47" y="59" width="5" height="1" fill="#93a078"/><rect x="52" y="59" width="3" height="1" fill="#202a24"/><rect x="55" y="59" width="2" height="1" fill="#52634a"/><rect x="57" y="59" width="2" height="1" fill="#93a078"/><rect x="59" y="59" width="4" height="1" fill="#52634a"/><rect x="63" y="59" width="2" height="1" fill="#202a24"/><rect x="46" y="60" width="1" height="1" fill="#202a24"/><rect x="47" y="60" width="6" height="1" fill="#93a078"/><rect x="53" y="60" width="1" height="1" fill="#202a24"/><rect x="54" y="60" width="1" height="1" fill="#93a078"/><rect x="55" y="60" width="8" height="1" fill="#202a24"/><rect x="47" y="61" width="1" height="1" fill="#202a24"/><rect x="48" y="61" width="4" height="1" fill="#93a078"/><rect x="52" y="61" width="1" height="1" fill="#52634a"/><rect x="53" y="61" width="1" height="1" fill="#202a24"/><rect x="54" y="61" width="3" height="1" fill="#93a078"/><rect x="57" y="61" width="1" height="1" fill="#202a24"/><rect x="58" y="61" width="1" height="1" fill="#52634a"/><rect x="59" y="61" width="1" height="1" fill="#93a078"/><rect x="60" y="61" width="3" height="1" fill="#202a24"/><rect x="48" y="62" width="3" height="1" fill="#202a24"/><rect x="51" y="62" width="2" height="1" fill="#93a078"/><rect x="53" y="62" width="1" height="1" fill="#202a24"/><rect x="54" y="62" width="2" height="1" fill="#93a078"/><rect x="56" y="62" width="1" height="1" fill="#52634a"/><rect x="57" y="62" width="1" height="1" fill="#202a24"/><rect x="58" y="62" width="3" height="1" fill="#93a078"/><rect x="61" y="62" width="1" height="1" fill="#202a24"/><rect x="51" y="63" width="7" height="1" fill="#202a24"/><rect x="58" y="63" width="2" height="1" fill="#93a078"/><rect x="60" y="63" width="1" height="1" fill="#202a24"/><rect x="57" y="64" width="3" height="1" fill="#202a24"/></svg>
